<?xml version="1.0" standalone="no"?>
<!DOCTYPE svg PUBLIC "-//W3C//DTD SVG 1.1//EN" "http://www.w3.org/Graphics/SVG/1.1/DTD/svg11.dtd" >
<svg xmlns="http://www.w3.org/2000/svg">
<metadata></metadata>
<defs>
<font id="latin_modern_roman12_bold" horiz-adv-x="1153" >
<font-face units-per-em="2048" ascent="1651" descent="-397" />
<missing-glyph horiz-adv-x="768" />
<glyph unicode="&#xfb01;" horiz-adv-x="1280" d="M61 821v88h152v207q0 60 24 109.5t66 83.5t95 59t115.5 39t122.5 20.5t122 6.5q145 0 222 -69t77 -163q0 -57 -36 -91t-89 -34q-54 0 -89.5 34.5t-35.5 90.5q0 42 22.5 75.5t67.5 47.5q-61 41 -158 41q-32 0 -65.5 -3.5t-82.5 -19t-85.5 -40.5t-63 -74.5t-26.5 -114.5 v-205h295v9l354 10v-840h141v-88q-47 4 -248 4q-200 0 -247 -4v88h141v660q0 51 -11.5 62t-52.5 11h-362v-733h141v-88q-47 4 -248 4q-200 0 -247 -4v88h141v733h-152z" />
<glyph unicode="&#xfb02;" horiz-adv-x="1280" d="M61 821v88h152v207q0 69 32.5 124.5t85.5 91t124.5 59t146 33.5t154.5 10q87 0 145 -17q20 -6 31 -6q43 0 133 10v-1333h141v-88q-47 4 -248 4q-200 0 -247 -4v88h141v733h-426v-733h141v-88q-47 4 -248 4q-200 0 -247 -4v88h141v733h-152zM416 909h436v262 q-41 31 -41 91q0 50 31 81l6 11q0 12 -107 12q-60 0 -113 -11.5t-103 -38t-79.5 -78.5t-29.5 -124v-205z" />
<glyph unicode="&#xfb04;" horiz-adv-x="1921" d="M61 821v88h152v207q0 71 34.5 128t88.5 91.5t127 57.5t144 32t145 9q169 0 249 -82q152 82 394 82q87 0 145 -17q20 -6 31 -6q43 0 133 10v-1333h141v-88q-47 4 -248 4q-200 0 -247 -4v88h141v733h-426v-733h141v-88q-47 4 -248 4q-200 0 -247 -4v88h141v733h-426v-733 h141v-88q-47 4 -248 4q-200 0 -247 -4v88h141v733h-152zM416 909h436v236q-41 29 -41 92q0 38 18.5 66t44.5 40q-61 23 -137 23q-38 0 -74.5 -4.5t-83.5 -20.5t-81 -42t-58 -73.5t-24 -111.5v-205zM1055 909h436v262q-41 31 -41 91q0 50 31 81l6 11q0 12 -107 12 q-60 0 -113 -11.5t-103 -38t-79.5 -78.5t-29.5 -124v-205z" />
<glyph horiz-adv-x="0" />
<glyph horiz-adv-x="682" />
<glyph unicode=" "  horiz-adv-x="768" />
<glyph unicode="&#x09;" horiz-adv-x="768" />
<glyph unicode="&#xa0;" horiz-adv-x="768" />
<glyph unicode="!" horiz-adv-x="702" d="M203 147q0 62 43 105t104 43q62 0 105 -43.5t43 -104.5t-43 -104t-105 -43t-104.5 43t-42.5 104zM203 1311q0 62 46.5 98.5t100.5 36.5t101 -35.5t47 -99.5q0 -27 -4 -56l-99 -766q-3 -30 -10 -37.5t-35 -7.5t-35 7.5t-10 37.5l-98 766q-4 29 -4 56z" />
<glyph unicode="&#x22;" horiz-adv-x="948" d="M209 1319q-6 45 27 78t83 33t84 -33t27 -78l-68 -461h-86zM516 1319q-6 45 27.5 78t83.5 33t83.5 -33t26.5 -78l-67 -461h-86z" />
<glyph unicode="#" horiz-adv-x="1921" d="M127 287q0 20 8 32.5t23.5 17.5t25.5 6t27 1h379l100 334h-479q-17 0 -27 1t-25.5 6t-23.5 17.5t-8 32.5q0 56 82 56h516l174 573q6 19 9.5 28t16 19t31.5 10q26 0 42 -16.5t16 -38.5q0 -8 -10 -39l-160 -536h401l174 573q4 14 7 21t9.5 17t16.5 14.5t25 4.5 q26 0 41.5 -16.5t15.5 -38.5q0 -8 -10 -39l-160 -536h344q82 0 82 -56q0 -20 -8 -32.5t-23.5 -17.5t-25.5 -6t-27 -1h-379l-100 -334h479q17 0 27 -1t25.5 -6t23.5 -17.5t8 -32.5q0 -56 -82 -56h-516l-174 -571q-6 -19 -9.5 -28t-16 -19t-31.5 -10q-26 0 -42 16.5t-16 38.5 q0 8 10 39l160 534h-401l-174 -571q-4 -14 -7 -21t-9.5 -17t-16.5 -14.5t-25 -4.5q-26 0 -41.5 16.5t-15.5 38.5q0 8 10 39l160 534h-344q-82 0 -82 56zM707 344h403l100 334h-403z" />
<glyph unicode="$" d="M127 377q0 69 37.5 99t83.5 30q53 0 87 -33.5t34 -87.5q0 -64 -42.5 -93.5t-90.5 -29.5q65 -166 294 -184v532q-47 10 -74 17.5t-69 23.5t-80 42t-74 63q-18 18 -37.5 44.5t-44 90.5t-24.5 133q0 163 104 279t299 129v104h88v-104q187 -7 295.5 -106t108.5 -255 q0 -68 -38 -97.5t-83 -29.5q-49 0 -85 32t-36 89q0 45 30.5 82.5t98.5 38.5q-74 145 -291 157v-475q43 -9 69.5 -16.5t68 -23t78.5 -41.5t71 -62q117 -126 117 -301q0 -57 -12 -111.5t-41.5 -110.5t-74.5 -99.5t-116 -74t-160 -38.5v-105h-88v105q-191 10 -297 119t-106 268 zM279 1118q0 -77 60.5 -142t190.5 -89v456q-71 -6 -123 -30t-78.5 -59t-38 -68.5t-11.5 -67.5zM618 78q62 7 110 29.5t74 50t42 62t21 60.5t5 52q0 92 -66 164.5t-186 93.5v-512z" />
<glyph unicode="%" horiz-adv-x="1921" d="M127 1124q0 103 30 184.5t79.5 130t109.5 73t125 24.5q40 0 76 -11.5t53 -22t47 -32.5q201 -151 434 -151q252 0 400 176q15 17 21 23.5t16.5 12t23.5 5.5q22 0 38.5 -15.5t16.5 -41.5v-7t-1.5 -6.5t-2 -5t-3 -6t-4 -6t-5.5 -7.5l-6 -9l-1145 -1512q-10 -13 -14.5 -18 t-15 -11t-23.5 -6q-24 0 -41 17t-17 41q0 17 23 47l991 1308l-2 2q-105 -47 -246 -47q-182 0 -354 86q35 -88 35 -217q0 -202 -85 -306.5t-210 -104.5q-49 0 -96.5 13.5t-93 45.5t-79.5 78.5t-54.5 117.5t-20.5 158zM328 1122q0 -41 0.5 -62t3 -63.5t8 -67t16 -57t26 -50.5 t40 -31t55.5 -13q33 0 65.5 16.5t65 53t52.5 108t20 168.5q0 75 -13 136t-34 99t-48.5 63t-54 35.5t-53.5 10.5q-31 0 -55.5 -13t-40 -31t-26 -50.5t-16 -57.5t-8 -67.5t-3 -64t-0.5 -62.5zM1151 299q0 103 30 184.5t79.5 130t109.5 73t125 24.5q57 0 108 -23.5t93.5 -71 t68 -130t25.5 -189.5q0 -202 -85 -307t-210 -105q-62 0 -120.5 23t-110 70t-82.5 130t-31 191zM1352 297q0 -41 0.5 -62t3 -63.5t8 -67t16 -57t26 -50.5t40 -31t55.5 -13q33 0 65.5 16.5t65 53t52.5 108t20 168.5q0 93 -19.5 163.5t-51 108t-65 55t-67.5 17.5 q-31 0 -55.5 -13t-40 -31t-26 -50.5t-16 -57.5t-8 -67.5t-3 -64t-0.5 -62.5z" />
<glyph unicode="&#x26;" horiz-adv-x="1792" d="M96 279q0 40 9 71.5t35 64t46.5 52.5t67.5 61l180 164q-86 208 -86 391q0 69 21.5 129.5t57 102.5t81.5 72t95.5 44.5t98.5 14.5q54 0 97.5 -25.5t68 -65.5t37.5 -85t13 -90q0 -38 -18 -81t-41.5 -78t-67.5 -83.5t-73 -76.5t-81 -77q32 -74 86.5 -158.5t113.5 -157 t96 -115t66 -72.5q119 119 238 294l133 197q12 18 12 25q0 24 -149 24v88q49 -4 235 -4l207 4v-88q-59 0 -88.5 -1.5t-63 -10t-46.5 -25.5l-70 -104q-133 -199 -194.5 -278t-159.5 -179q60 -53 93 -79.5t90 -53.5t110 -27q27 0 59.5 7t72.5 24t68 55.5t31 92.5h86 q-3 -122 -99.5 -194.5t-228.5 -72.5q-201 0 -422 134q-195 -134 -399 -134q-177 0 -297.5 85.5t-120.5 218.5zM342 352q0 -38 8 -81t27 -93t61 -82.5t101 -32.5q30 0 65 4t107 27.5t133 65.5q-34 24 -72 59t-90 91t-109.5 138.5t-107.5 178.5q-21 -17 -36 -32t-38 -48 t-36 -83t-13 -112zM549 1169q0 -157 61 -317q27 24 60 58.5t52 57.5l19 23q90 109 90 191q0 24 -5.5 53t-18 63.5t-38.5 57t-62 22.5q-68 0 -113 -61.5t-45 -147.5z" />
<glyph unicode="'" horiz-adv-x="641" d="M209 1319q-6 45 27 78t83 33t84 -33t27 -78l-68 -461h-86z" />
<glyph unicode="(" horiz-adv-x="897" d="M221 512q0 288 110 549t324 432q37 30 49 36.5t27 6.5q35 0 35 -25q0 -6 -3.5 -10t-23.5 -24q-329 -332 -329 -967q0 -289 77 -538t240 -412q39 -37 39 -49q0 -25 -35 -25q-16 0 -28 6.5t-50 38.5q-213 174 -322.5 432t-109.5 549z" />
<glyph unicode=")" horiz-adv-x="897" d="M127 -489q0 6 3.5 10t23.5 24q329 332 329 967q0 289 -77 538t-240 412q-39 37 -39 49q0 25 35 25q16 0 28 -6.5t50 -38.5q213 -174 322.5 -432t109.5 -549q0 -288 -110 -549t-324 -432q-37 -30 -49 -36.5t-27 -6.5q-35 0 -35 25z" />
<glyph unicode="*" d="M147 899q0 25 11 41.5t21.5 22t29.5 12.5l295 106l-297 107q-60 18 -60 76q0 38 25.5 65t60.5 27q15 0 22.5 -3.5t31.5 -21.5l254 -192l-45 274q-7 41 -7 47q0 37 27 56.5t59 19.5q29 0 56.5 -19.5t27.5 -56.5q0 -12 -6 -47l-45 -274l254 192q24 18 31.5 21.5t21.5 3.5 q35 0 60.5 -27t25.5 -65q0 -25 -11 -41.5t-21 -22t-29 -12.5l-295 -107l297 -106q59 -18 59 -76q0 -38 -25.5 -65t-60.5 -27q-15 0 -22.5 3.5t-30.5 20.5l-254 193l27 -160q24 -159 24 -162q0 -36 -27 -55.5t-59 -19.5q-29 0 -56.5 19t-27.5 56q0 7 7 48l45 274l-254 -193 q-23 -17 -31 -20.5t-23 -3.5q-35 0 -60.5 27t-25.5 65z" />
<glyph unicode="+" horiz-adv-x="1792" d="M127 510q0 20 8 32.5t23 17.5t25 6t26 1h631v631q0 16 1 26t6 25t17.5 23t32.5 8q55 0 55 -82v-631h629q16 0 26 -1t25 -6t23 -17.5t8 -32.5q0 -55 -82 -55h-629v-631q0 -16 -1 -26t-6 -25t-17.5 -23t-32.5 -8q-55 0 -55 82v631h-631q-82 0 -82 55z" />
<glyph unicode="," horiz-adv-x="641" d="M172 147q0 62 39.5 105t105.5 43q81 0 128 -71.5t47 -174.5q0 -77 -21.5 -151t-52 -125t-64 -91t-58.5 -59.5t-34 -19.5q-10 0 -23.5 13t-13.5 26q0 10 19 26q172 147 180 371q-39 -39 -105 -39q-68 0 -107.5 43.5t-39.5 103.5z" />
<glyph unicode="-" horiz-adv-x="768" d="M25 360v189h614v-189h-614z" />
<glyph unicode="." horiz-adv-x="641" d="M172 147q0 62 43 105t104 43t104.5 -43t43.5 -105t-43.5 -104.5t-104.5 -42.5t-104 42.5t-43 104.5z" />
<glyph unicode="/" d="M127 -455q0 12 10 37l770 1901q6 15 9.5 21t10 15.5t16.5 13t24 3.5q22 0 38.5 -15.5t16.5 -41.5q0 -12 -10 -37l-770 -1901q-6 -15 -9.5 -22t-10 -15.5t-16.5 -12t-24 -3.5q-22 0 -38.5 15.5t-16.5 41.5z" />
<glyph unicode="0" d="M90 653q0 63 1 102.5t10.5 119.5t26.5 134.5t53 123t85.5 110t129 71t179.5 29.5t179 -29.5t128.5 -71.5t85.5 -110t53 -123t26.5 -134.5t10.5 -119.5t1 -102q0 -47 -0.5 -77.5t-5 -89t-13 -100t-25.5 -99t-40.5 -97.5t-61 -83.5t-84.5 -70t-112.5 -44t-143.5 -17.5 t-143.5 17.5t-112.5 44.5t-84 71t-60.5 84t-40 98t-24.5 98.5t-12.5 100t-5 88.5t-0.5 76zM336 678q0 -175 5 -282.5t18.5 -163t25 -75.5t35.5 -44q67 -70 155 -70q85 0 146 61q23 23 33.5 37t24.5 51.5t19.5 93t10 152.5t4.5 240q0 291 -18 395q-8 49 -28 87t-43.5 59 t-52.5 34.5t-52 18t-46 4.5q-19 0 -38 -2.5t-50.5 -15.5t-56 -34.5t-46.5 -64.5t-30 -100q-16 -106 -16 -381z" />
<glyph unicode="1" d="M176 1124v88h39q272 0 424 131q51 0 60.5 -8t9.5 -51v-1196h280v-88l-399 4l-397 -4v88h284v1075q-118 -39 -262 -39h-39z" />
<glyph unicode="2" d="M115 0v35q0 29 2.5 37.5t17.5 21.5l445 465q79 83 135.5 185t56.5 210q0 121 -73 211t-205 90q-145 0 -234 -102q53 -7 90 -42t37 -95q0 -65 -42 -101t-95 -36q-20 0 -41.5 7t-43.5 21.5t-36 43.5t-14 67q0 95 59.5 170t157 115t213.5 40q136 0 246.5 -45.5t176.5 -134.5 t66 -207q0 -37 -5.5 -69.5t-20.5 -64t-29 -56.5t-44 -56.5t-50.5 -52t-64.5 -55.5t-70.5 -55t-81.5 -62l-295 -243h317q191 0 207 14q28 18 51 184h86l-59 -440h-860z" />
<glyph unicode="3" d="M96 274q0 64 41 105t105 41q63 0 103 -40.5t40 -103.5q0 -51 -29 -90.5t-90 -52.5q106 -76 277 -76q46 0 82 13t58.5 31.5t39 49t24 55t12 60.5t5 54t0.5 47q0 30 -0.5 48.5t-5 55t-12.5 60.5t-25 54.5t-40.5 48.5t-61 31t-84.5 13h-99q-34 0 -43.5 5t-9.5 30q0 22 12 28 q7 4 74 9q49 3 73 6.5t55 20.5t56 50q74 94 74 240q0 19 -0.5 31t-4 35.5t-10 39.5t-19.5 36t-32 32t-48.5 20.5t-67.5 8.5q-22 0 -50 -2.5t-89 -23t-99 -58.5q64 -9 90.5 -47.5t26.5 -83.5q0 -65 -40 -99t-91 -34q-49 0 -91 33t-42 102q0 124 112.5 205t284.5 81 q205 0 318.5 -80.5t113.5 -201.5q0 -119 -83.5 -210.5t-221.5 -133.5q90 -16 159.5 -48.5t108 -69.5t62.5 -82t31.5 -80t7.5 -70q0 -78 -31.5 -148t-91.5 -125t-157 -87t-220 -32q-195 0 -326 81t-131 218z" />
<glyph unicode="4" d="M63 322v88l705 907q18 23 27.5 27t38.5 4q37 0 45 -10t8 -50v-878h198v-88h-198v-234h198v-88q-55 4 -327 4q-277 0 -336 -4v88h223v234h-582zM158 410h506v651z" />
<glyph unicode="5" d="M115 326q0 67 38.5 100t90.5 33q57 0 93 -36.5t36 -92.5q0 -46 -31.5 -86.5t-103.5 -40.5q25 -42 61 -72t74.5 -45.5t72.5 -22t66 -6.5q41 0 75 8t58.5 20t44 33.5t31.5 40t20.5 49t13 51t6.5 55t2.5 53t0.5 51.5q0 46 -0.5 71.5t-4 68.5t-10.5 68t-21 56.5t-33.5 48.5 t-50 29t-69.5 12q-61 0 -110.5 -13t-83.5 -37t-47.5 -36.5t-30.5 -32.5q-12 -15 -19 -18.5t-22 -3.5q-28 0 -34.5 13t-6.5 48v596q0 22 1 31t6.5 16.5t17.5 7.5q3 0 6 -1t8.5 -3t11.5 -4q156 -57 312 -57q152 0 309 55l27 10q24 0 24 -34q0 -32 -57 -88.5t-113 -90.5 q-135 -83 -303 -83q-86 0 -156 16v-305q109 82 269 82q208 0 329 -118.5t121 -309.5q0 -193 -140.5 -315t-373.5 -122q-118 0 -212 51t-143.5 130.5t-49.5 169.5z" />
<glyph unicode="6" d="M96 649q0 154 38.5 277t99.5 199t142 127t160.5 71t161.5 20q150 0 223.5 -72t73.5 -175q0 -62 -37.5 -93.5t-83.5 -31.5q-51 0 -85.5 33.5t-34.5 87.5q0 46 27.5 80t82.5 40q-56 58 -162 58q-94 0 -170 -48t-112 -118q-39 -76 -51.5 -163t-12.5 -200v-55q82 174 254 174 q124 0 223 -48.5t159.5 -149.5t60.5 -240q0 -210 -131.5 -328.5t-339.5 -118.5q-78 0 -144 19.5t-113 49t-84.5 76.5t-61 90.5t-40.5 102t-25 100.5t-12.5 96.5t-5 79.5t-0.5 60zM360 434q0 -182 29 -250q63 -127 191 -127q62 0 104 21t63.5 47.5t32 84t12 96t1.5 118.5v61 t-1.5 55.5t-4 54t-7.5 47.5t-12.5 44t-18.5 35.5t-26 31t-34 21t-44 15t-55 4.5q-99 0 -164.5 -90.5t-65.5 -268.5z" />
<glyph unicode="7" d="M127 879l68 505h86q2 -10 4 -15.5t7.5 -14t17.5 -13.5t30 -8q16 -3 170.5 -8.5t173.5 -5.5h432q0 -52 -2.5 -64.5t-15.5 -27.5l-307 -367q-91 -109 -124.5 -274.5t-33.5 -421.5q0 -74 -4 -99.5t-23 -48.5q-41 -41 -94 -41q-10 0 -19.5 1t-29.5 8.5t-34.5 20.5t-26 41 t-11.5 67q0 249 139 522q46 87 93.5 151t234.5 291h-371q-203 0 -221 -12q-16 -10 -29 -56t-17.5 -76t-6.5 -54h-86z" />
<glyph unicode="8" d="M96 326q0 230 271 350q-107 56 -157 139t-50 174q0 155 110 254.5t308 99.5q86 0 158.5 -18t130 -53t90 -94t32.5 -136q0 -57 -18.5 -104t-53 -81.5t-67 -56.5t-78.5 -46q31 -17 49 -27.5t51.5 -33t54.5 -42t47.5 -50.5t41.5 -62t26 -73.5t11 -88.5q0 -181 -129 -291.5 t-353 -110.5q-138 0 -243.5 37.5t-168.5 118t-63 195.5zM260 328q0 -124 84 -197.5t234 -73.5q59 0 111.5 11t98.5 34.5t73.5 67t27.5 102.5q0 30 -10.5 57t-24 44.5t-38.5 37t-40 29t-43 25.5l-282 162q-191 -107 -191 -299zM305 1102q0 -82 98 -137l287 -162 q154 90 154 239q0 103 -72.5 165.5t-200.5 62.5q-19 0 -37 -1.5t-52.5 -5.5t-62 -15.5t-55 -29t-43.5 -47.5t-16 -69z" />
<glyph unicode="9" d="M96 899q0 207 133.5 325.5t350.5 118.5q76 0 140.5 -19t110 -48.5t82 -76t59.5 -89.5t39.5 -101.5t24 -99.5t12 -96t5 -79.5t0.5 -59.5q0 -152 -35.5 -274.5t-92.5 -200t-133.5 -129.5t-154.5 -73.5t-160 -21.5q-154 0 -238.5 68.5t-84.5 179.5q0 62 37 93.5t83 31.5 q51 0 86 -33.5t35 -87.5q0 -48 -28 -80t-74 -41q64 -49 180 -49q66 0 118 22.5t85 54.5t56.5 84t35 94t17.5 101.5t7 89.5t1 75v59q-80 -176 -254 -176q-125 0 -224 49t-159 150t-60 239zM356 835.5q0 -19.5 1.5 -55t4 -54t7.5 -47t12.5 -44t18.5 -36t26 -31t34 -21t44 -15 t55 -4.5q61 0 108 33.5t73 86.5t38.5 110.5t12.5 115.5q0 180 -25 256q-5 15 -15 32.5t-31 45t-58 45t-82 17.5q-37 0 -66.5 -7t-51.5 -17t-39 -30t-28 -37t-19 -47.5t-11.5 -51.5t-5.5 -59t-2.5 -60.5t-0.5 -65.5v-59.5z" />
<glyph unicode=":" horiz-adv-x="641" d="M172 147q0 62 43 105t104 43t104.5 -43t43.5 -105t-43.5 -104.5t-104.5 -42.5t-104 42.5t-43 104.5zM172 762q0 62 43 104.5t104 42.5t104.5 -42.5t43.5 -104.5t-43.5 -105t-104.5 -43t-104 43t-43 105z" />
<glyph unicode=";" horiz-adv-x="641" d="M172 147q0 61 40 104.5t105 43.5q41 0 72.5 -21t49 -57t26 -77.5t8.5 -88.5q0 -76 -19.5 -149.5t-47 -125.5t-58.5 -92.5t-54 -60.5t-32 -20q-10 0 -23.5 13t-13.5 26q0 11 21 30q148 148 160 353q-34 -25 -87 -25q-68 0 -107.5 43.5t-39.5 103.5zM172 762q0 62 43 104.5 t104 42.5t104.5 -42.5t43.5 -104.5t-43.5 -105t-104.5 -43t-104 43t-43 105z" />
<glyph unicode="&#x3c;" horiz-adv-x="1830" d="M197 514q0 42 51 64l1282 612q21 12 39 12q28 0 45.5 -19t17.5 -42q0 -41 -51 -66l-1178 -563l1178 -561q51 -25 51 -66q0 -23 -17.5 -42t-45.5 -19q-16 0 -45 14l-1276 611q-51 23 -51 65z" />
<glyph unicode="=" horiz-adv-x="1792" d="M127 287q0 20 8 32.5t23.5 17.5t25.5 6t27 1h1368q17 0 27 -1t25.5 -6t23.5 -17.5t8 -32.5q0 -56 -82 -56h-1372q-82 0 -82 56zM127 735q0 56 82 56h1372q82 0 82 -56q0 -20 -8 -32.5t-23.5 -17.5t-25.5 -6t-27 -1h-1368q-17 0 -27 1t-25.5 6t-23.5 17.5t-8 32.5z" />
<glyph unicode="&#x3e;" horiz-adv-x="1830" d="M197 -115q0 43 51 66l1177 563l-1177 561q-26 13 -38.5 27.5t-12.5 38.5q0 25 18 43t43 18q18 0 47 -14l1276 -610q51 -22 51 -64q0 -44 -51 -65l-1282 -613q-21 -12 -39 -12q-28 0 -45.5 19t-17.5 42z" />
<glyph unicode="?" horiz-adv-x="1087" d="M127 1169q0 110 104 187.5t293 77.5q26 0 48 -0.5t69.5 -6t85 -14.5t83 -29t76 -47.5t51.5 -71t21 -98.5q0 -46 -13.5 -83t-39.5 -64t-41 -38.5t-41 -27.5q-270 -161 -270 -403v-53q0 -20 -0.5 -27.5t-5 -15t-13 -9.5t-24.5 -2q-39 0 -43 21v65q0 288 184 478 q23 22 33.5 36.5t19.5 49t9 88.5q0 38 -2 59.5t-12.5 48.5t-31 41.5t-59 24.5t-94.5 10q-158 0 -246 -80q57 -11 79 -46.5t22 -72.5q0 -55 -35 -87.5t-86 -32.5q-49 0 -85 31.5t-36 90.5zM362 147q0 61 43 104.5t105 43.5q61 0 104 -43t43 -105q0 -61 -42.5 -104t-104.5 -43 t-105 43t-43 104z" />
<glyph unicode="@" horiz-adv-x="1792" d="M127 711q0 158 53.5 291.5t151 229t242.5 149t321 53.5q348 0 558 -198t210 -529q0 -172 -45 -287q-66 -156 -213 -156q-182 0 -250 96q-106 -96 -264 -96q-200 0 -328.5 120.5t-128.5 326.5q0 205 128 325.5t329 120.5q106 0 192.5 -46t135.5 -130h86q37 0 44 -7t7 -46 v-473q0 -123 69 -123q46 0 77 29.5t47 83.5t22 113.5t6 135.5q0 138 -37 251.5t-101 190.5t-151.5 129.5t-185.5 76.5t-207 24q-316 0 -499 -181t-183 -474q0 -136 43.5 -253.5t127 -208t216.5 -142.5t301 -52q300 0 602 117q25 10 58 10h49q22 0 30 -0.5t15.5 -6t7.5 -17.5 q0 -7 -5 -13t-10 -8t-16 -6q-353 -143 -729 -143q-153 0 -281 37.5t-218.5 104t-153.5 158t-93 198t-30 225.5zM657 711q0 -187 70 -283t172 -96q18 0 38 3t56 13t73.5 37t66.5 68v516q-29 41 -66.5 68t-73.5 37t-56 13t-38 3q-102 0 -172 -95.5t-70 -283.5z" />
<glyph unicode="A" horiz-adv-x="1740" d="M80 0v88h37q53 0 104 6q41 4 51 10.5t21 32.5l508 1249q8 22 13 30t18 13t38 5q35 0 46 -9t22 -39l526 -1298h195v-88q-51 4 -326 4q-276 0 -342 -4v88h193l-129 320h-549l-109 -267q-2 -4 -3 -7t-3 -9.5t-4 -13.5q57 -23 180 -23v-88q-47 4 -252 4q-182 0 -235 -4z M541 496h477l-238 589z" />
<glyph unicode="B" horiz-adv-x="1638" d="M80 0v88h217v1229h-217v88h864q236 0 368 -101.5t132 -250.5q0 -32 -8 -65t-31.5 -73t-60.5 -73.5t-102.5 -63t-149.5 -45.5q187 -14 302 -111t115 -243q0 -75 -32 -142.5t-92.5 -120.5t-158 -84.5t-220.5 -31.5h-926zM549 88h377q84 0 146.5 27.5t95.5 72.5t48 93.5 t15 101.5q0 27 -4 55.5t-13.5 66t-30 70t-49 60.5t-75 44.5t-103.5 16.5h-407v-608zM549 764h305q86 0 150.5 25t100 67.5t52.5 92t17 106.5q0 34 -6 66.5t-23 69.5t-44 63.5t-74 44.5t-107 18h-371v-553z" />
<glyph unicode="C" horiz-adv-x="1665" d="M127 702q0 160 57.5 295t161.5 230.5t254.5 149t331.5 53.5q229 0 403 -148l154 148q32 0 38.5 -8.5t6.5 -45.5v-446q0 -38 -6.5 -45.5t-40.5 -7.5q-16 0 -23.5 0.5t-14.5 4.5t-9 13q-17 103 -57 184t-88 129t-106.5 79t-109.5 42.5t-102 11.5q-45 0 -92.5 -6t-110 -22.5 t-124 -54t-107.5 -91.5q-69 -83 -98 -195t-29 -270q0 -193 36 -298t101 -175q79 -89 195 -127.5t233 -38.5q58 0 117.5 13t121 45t109.5 78.5t81 119.5t38 162q1 11 8.5 16t14.5 6t20 1q26 0 34.5 -6t8.5 -31q0 -91 -43 -179t-119 -157.5t-191 -112.5t-247 -43 q-185 0 -337.5 54.5t-255 151t-158.5 230t-56 291.5z" />
<glyph unicode="D" horiz-adv-x="1765" d="M78 0v88h217v1229h-217v88h862q145 0 271 -47.5t221 -136t149.5 -225.5t54.5 -306q0 -213 -92.5 -371.5t-249 -238.5t-354.5 -80h-862zM555 88h307q133 0 235 44t158 118q56 75 79.5 171t23.5 271q0 184 -24 281t-74 168q-58 81 -162.5 128.5t-235.5 47.5h-307v-1229z " />
<glyph unicode="E" horiz-adv-x="1511" d="M78 0v88h217v1219h-217v88h1245l59 -486h-86q-10 85 -24.5 143.5t-43 110t-72.5 81t-111 46.5t-160 17h-320v-539h121q72 0 116.5 14.5t66 49t28 73t6.5 103.5h86v-568h-86q0 66 -6.5 104.5t-28 72.5t-66 48.5t-116.5 14.5h-121v-592h320q106 0 182.5 20t126 55t83 95.5 t51.5 128t32 166.5h86l-88 -553h-1280z" />
<glyph unicode="F" horiz-adv-x="1447" d="M78 0v88h217v1219h-217v88h1212l60 -486h-86q-10 84 -22 138t-39.5 108t-69.5 84.5t-110.5 49t-164.5 18.5h-293v-566h113q58 0 97.5 11.5t62.5 29t35 51t15 65.5t3 83h86v-567h-86q0 51 -3 83t-15 65t-35 51t-62.5 29t-97.5 11h-113v-565h273v-88l-392 4q-309 0 -368 -4 z" />
<glyph unicode="G" horiz-adv-x="1810" d="M127 702q0 160 57.5 295t161.5 230.5t254.5 149t331.5 53.5q229 0 403 -148l154 148q32 0 38.5 -8.5t6.5 -45.5v-446q0 -38 -6.5 -45.5t-40.5 -7.5q-16 0 -23.5 0.5t-14.5 4.5t-9 13q-17 103 -57 184t-88 129t-106.5 79t-109.5 42.5t-102 11.5q-45 0 -92.5 -6t-110 -22.5 t-124 -54t-107.5 -91.5q-68 -80 -97.5 -190.5t-29.5 -271.5q0 -175 32.5 -282t96.5 -181q45 -53 105.5 -90.5t123 -55.5t115 -25.5t102.5 -7.5q118 0 191 48q29 18 47 38t25 42t8.5 35.5t1.5 35.5v209h-289v88l385 -4q285 0 334 4v-88h-160v-418q0 -21 -1 -29.5t-6.5 -16 t-17.5 -7.5q-5 0 -36 14t-78 42.5t-78 58.5q-58 -75 -161 -107.5t-222 -32.5q-185 0 -337.5 54.5t-255 151t-158.5 230t-56 291.5z" />
<glyph unicode="H" horiz-adv-x="1802" d="M78 0v88h217v1229h-217v88q59 -4 352 -4t352 4v-88h-217v-543h670v543h-217v88q59 -4 352 -4t352 4v-88h-217v-1229h217v-88q-59 4 -352 4t-352 -4v88h217v598h-670v-598h217v-88q-59 4 -352 4t-352 -4z" />
<glyph unicode="I" horiz-adv-x="858" d="M63 0v88h230v1229h-230v88q74 -4 365 -4t365 4v-88h-230v-1229h230v-88q-74 4 -365 4t-365 -4z" />
<glyph unicode="J" horiz-adv-x="1189" d="M63 233q0 67 43.5 106.5t102.5 39.5q54 0 98.5 -38.5t44.5 -107.5q0 -49 -27.5 -87.5t-80.5 -51.5q80 -51 188 -51q88 0 144.5 63.5t56.5 198.5v1012h-283v88l379 -4q277 0 328 4v-88h-164v-1012q0 -155 -125 -242.5t-326 -87.5q-167 0 -273 71.5t-106 186.5z" />
<glyph unicode="K" horiz-adv-x="1804" d="M78 0v88h217v1229h-217v88q59 -4 352 -4t352 4v-88h-217v-678l766 653v2q-61 23 -147 23v88q51 -4 272 -4l219 4v-88q-86 0 -134 -5.5t-62 -12t-31 -21.5l-487 -414l550 -737q12 -17 21.5 -23.5t36.5 -11t82 -4.5h55v-88q-47 4 -301 4q-268 0 -334 -4v88q146 0 146 23 q0 5 -13 24l-428 572l-211 -181v-438h217v-88q-59 4 -352 4t-352 -4z" />
<glyph unicode="L" horiz-adv-x="1384" d="M78 0v88h217v1229h-217v88q59 -4 368 -4l392 4v-88h-273v-1229h219q76 0 138.5 19.5t103 47t72.5 73t48.5 82t29 90.5t16.5 81.5t8 71.5h86l-59 -553h-1149z" />
<glyph unicode="M" horiz-adv-x="2185" d="M84 0v88h47q59 0 115 6q39 6 47 14t8 42v1167h-217v88h436q26 0 37 -1.5t22.5 -11t20.5 -30.5l492 -1102l491 1102q12 30 27.5 36.5t52.5 6.5h436v-88h-217v-1229h217v-88q-55 4 -338 4t-338 -4v88h217v1229h-2l-567 -1274q-9 -21 -21 -32t-36 -11q-39 0 -58 43 l-557 1249h-2v-1142q0 -34 9 -42t53 -14q49 -6 108 -6h47v-88q-47 4 -266 4q-217 0 -264 -4z" />
<glyph unicode="N" horiz-adv-x="1802" d="M78 0v88h47q59 0 115 6q39 6 47 14t8 42v1167h-217v88h452q30 0 39.5 -3.5t24.5 -21.5l815 -981v856q0 34 -8.5 42t-52.5 14q-49 6 -109 6h-47v88q47 -4 266 -4q217 0 264 4v-88h-47q-59 0 -114 -6q-40 -6 -48 -14t-8 -42v-1196q0 -38 -7 -48.5t-42 -10.5q-20 0 -26.5 4 t-24.5 23l-1014 1220v-1097q0 -34 9 -42t53 -14q49 -6 108 -6h47v-88q-47 4 -266 4q-217 0 -264 -4z" />
<glyph unicode="O" horiz-adv-x="1730" d="M127 696q0 216 88 381.5t256 259t393 93.5q224 0 392 -93t257 -259t89 -382q0 -215 -90 -378t-257.5 -253t-390.5 -90q-167 0 -305 52t-233 146t-147 228t-52 295zM416 725q0 -92 5.5 -163.5t31 -165t71.5 -163.5q58 -86 148 -133t192 -47q109 0 193.5 47.5t130.5 110.5 q72 99 98.5 222.5t26.5 291.5q0 157 -22.5 260t-78.5 191q-49 76 -140 128t-208 52q-101 0 -198 -47.5t-160 -147.5q-39 -64 -60.5 -149.5t-25.5 -146t-4 -140.5z" />
<glyph unicode="P" horiz-adv-x="1574" d="M78 0v88h217v1229h-217v88h835q247 0 390 -112t143 -283q0 -165 -142.5 -275t-390.5 -110h-348v-537h217v-88q-59 4 -352 4t-352 -4zM555 702h285q52 0 94.5 6.5t73.5 16t55 27.5t39.5 33.5t26.5 41t16.5 43t8 47.5t3 46.5t0.5 46.5q0 57 -2 87t-18.5 79t-47.5 74.5 t-94.5 46t-154.5 20.5h-285v-615z" />
<glyph unicode="Q" horiz-adv-x="1730" d="M127 696q0 216 88 381.5t256 259t393 93.5q224 0 392 -93t257 -259t89 -382q0 -97 -21 -189.5t-67.5 -185t-133 -168.5t-204.5 -122q30 -49 58 -80t55 -42.5t42.5 -14.5t38.5 -3q25 0 51.5 4.5t56 14.5t50 31t24.5 51l3 18t8.5 13.5t19.5 7.5q31 0 31 -49q0 -54 -14 -114 t-43 -122t-85.5 -102.5t-130.5 -40.5q-34 0 -63 6.5t-52 23t-40.5 33t-33.5 48t-26.5 55.5t-23 69t-19.5 74t-20 84q-101 -21 -199 -21q-167 0 -305 52t-233 146t-147 228t-52 295zM406 696q0 -491 274 -606q-10 25 -10 57q0 71 57.5 119.5t136.5 48.5q70 0 130.5 -42.5 t121.5 -143.5q59 40 101 103.5t62 120t30.5 134t12 115.5t1.5 94q0 298 -92 451q-34 58 -80 100.5t-95.5 65t-96.5 33t-95 10.5q-109 0 -203.5 -50.5t-150.5 -136.5q-60 -94 -82 -207.5t-22 -265.5zM737 147q0 -14 5.5 -29t18.5 -31.5t39.5 -27t63.5 -10.5q42 0 86 8.5 t67 17.5l23 9q-28 81 -67 122.5t-107 41.5q-53 0 -91 -28.5t-38 -72.5z" />
<glyph unicode="R" horiz-adv-x="1718" d="M78 0v88h217v1229h-217v88h756q275 0 434 -108.5t159 -268.5q0 -46 -15.5 -89.5t-52 -89.5t-107 -86.5t-169.5 -66.5q46 -14 82.5 -34.5t61 -40.5t43 -49t28.5 -49.5t17.5 -54t9.5 -50l6 -49.5q4 -49 7 -78t9 -68.5t13 -61.5t19 -48t27.5 -39t37 -22t49.5 -9q48 0 86 37 t45 108q1 12 2 18t5.5 12t13 8.5t22.5 2.5q22 0 32.5 -8t10.5 -33q0 -13 -4 -33.5t-18.5 -53.5t-38 -59.5t-68.5 -46.5t-104 -20q-211 0 -320 74q-31 21 -51 45.5t-30.5 46t-15.5 59.5t-6 62.5t-1 77.5q0 113 -9.5 158t-52.5 94q-66 78 -192 78h-244v-582h217v-88 q-59 4 -348 4q-287 0 -346 -4zM555 737h240q56 0 102 6.5t79.5 16.5t59.5 27.5t43 33t29 40t18 41.5t9 44t3.5 42t0.5 40q0 34 -1 55t-8 54.5t-19.5 55.5t-37.5 48t-60.5 40.5t-90 25t-123.5 10.5h-244v-580z" />
<glyph unicode="S" horiz-adv-x="1280" d="M127 29v385q0 37 6 45t37 8q16 0 24 -1t12 -7t5 -12t2 -23q5 -86 39.5 -152t84 -104.5t115.5 -63t124 -33t118 -8.5q65 0 116 18t79.5 44.5t47 62t24.5 65.5t6 60q0 103 -86 189q-32 31 -71.5 43.5t-203.5 48.5q-174 38 -238 64.5t-139 101.5q-35 35 -68.5 104t-33.5 158 q0 175 118.5 291.5t329.5 116.5q207 0 353 -123l88 100q21 23 39 23q15 0 21.5 -6.5t7.5 -15t1 -32.5v-385q0 -37 -6 -45t-37 -8q-29 0 -34.5 6t-10.5 39q-16 97 -55.5 169.5t-96.5 114t-123.5 61.5t-143.5 20q-71 0 -125 -20.5t-83.5 -54t-44 -72t-14.5 -79.5 q0 -15 2 -30.5t13.5 -46.5t32 -56t62.5 -50t99 -38l281 -63q162 -37 256 -157.5t94 -270.5q0 -84 -27 -160t-80 -138.5t-143 -99.5t-205 -37q-108 0 -217.5 28t-191.5 93q-29 -29 -56.5 -60.5t-35.5 -39.5q-16 -14 -21.5 -17.5t-15.5 -3.5q-22 0 -26.5 10.5t-4.5 43.5z" />
<glyph unicode="T" horiz-adv-x="1601" d="M84 901l41 485h1350l41 -485h-86q-7 86 -13 130t-26 104.5t-52.5 89.5t-92.5 51t-146 22h-164v-1210h309v-88l-444 4l-445 -4v88h310v1210h-166q-48 0 -88 -7t-70.5 -17t-54.5 -30t-40 -37.5t-29 -49t-20 -54t-13 -63t-8.5 -66.5t-6.5 -73h-86z" />
<glyph unicode="U" horiz-adv-x="1771" d="M78 1317v88q59 -4 352 -4t352 4v-88h-217v-860q0 -34 1.5 -60t9 -69.5t21 -76t41 -70t65 -61.5t96.5 -40.5t133 -16.5q94 0 173 23.5t141.5 72t98 129.5t35.5 187v780q0 34 -8.5 42t-52.5 14q-49 6 -109 6h-47v88q47 -4 264 -4q218 0 265 4v-88h-47q-59 0 -115 -6 q-39 -6 -47 -14t-8 -42v-786q0 -99 -33.5 -186.5t-99 -157t-173.5 -110t-245 -40.5q-150 0 -271 39.5t-198.5 107.5t-118.5 157.5t-41 191.5v846h-217z" />
<glyph unicode="V" horiz-adv-x="1740" d="M49 1317v88q51 -4 320 -4q274 0 340 4v-88h-191l443 -1010l419 959l11 28q-57 23 -179 23v88q47 -4 250 -4q165 0 228 4v-88h-35q-72 0 -109.5 -7t-46 -15t-16.5 -25l-543 -1245q-9 -20 -20.5 -30t-21 -11.5t-30.5 -1.5q-19 0 -29 2t-20.5 11.5t-19.5 29.5l-566 1292 h-184z" />
<glyph unicode="W" horiz-adv-x="2379" d="M45 1317v88q51 -4 311 -4q275 0 334 4v-88h-192l364 -967l281 746l-84 221h-172v88q49 -4 311 -4q268 0 334 4v-88h-195l367 -967l344 914l8 24q0 29 -205 29v88q49 -4 258 -4l224 4v-88q-85 0 -124 -5.5t-49 -13.5t-18 -30l-469 -1239q-11 -29 -22.5 -38t-40.5 -9 q-31 0 -42.5 9.5t-21.5 37.5l-358 944l-357 -944q-10 -28 -21 -37.5t-42 -9.5t-42 10t-21 39l-488 1286h-172z" />
<glyph unicode="X" horiz-adv-x="1740" d="M63 0v88h56q43 0 119 6q51 4 66.5 10.5t29.5 26.5l411 549l-454 637h-199v88q55 -4 328 -4q276 0 350 4v-88h-170l305 -426l299 401q-61 25 -186 25v88q51 -4 293 -4q221 0 268 4v-88h-53q-68 0 -121 -6q-50 -4 -65.5 -10t-30.5 -27l-346 -463l518 -723h196v-88 q-51 4 -327 4q-283 0 -349 -4v88h170l-368 512l-365 -487q59 -25 187 -25v-88q-51 4 -291 4q-224 0 -271 -4z" />
<glyph unicode="Y" horiz-adv-x="1740" d="M33 1317v88q55 -4 332 -4q286 0 352 4v-88h-172l426 -631l393 584l14 24q-51 23 -155 23v88q47 -4 252 -4q174 0 231 4v-88h-39q-74 0 -114 -6.5t-50.5 -14t-21.5 -24.5l-482 -711v-473h220v-88q-66 4 -349 4q-289 0 -348 -4v88h217v473l-510 756h-196z" />
<glyph unicode="Z" horiz-adv-x="1409" d="M127 47q0 26 16 51l820 1219h-279q-207 0 -316.5 -93t-121.5 -304h-86l22 485h1037q20 0 28 -0.5t17 -5t11.5 -13.5t2.5 -26q0 -24 -16 -49l-820 -1217h299q85 0 153 14.5t114.5 37.5t81 61t54 74.5t33 90.5t18.5 96t9 103h86l-35 -571h-1069q-37 0 -48 7t-11 40z" />
<glyph unicode="[" horiz-adv-x="641" d="M262 -512v2048h326v-113h-213v-1822h213v-113h-326z" />
<glyph unicode="\" horiz-adv-x="1177" d="M131 1473q0 29 19 46t43 17q20 0 33.5 -9t19 -19t14.5 -33l772 -1883q12 -32 12 -41q0 -29 -18.5 -46t-42.5 -17q-15 0 -26.5 4.5t-19.5 14.5t-12 18.5t-10 23.5l-772 1883q-12 32 -12 41z" />
<glyph unicode="]" horiz-adv-x="641" d="M49 -399h213v1822h-213v113h326v-2048h-326v113z" />
<glyph unicode="^" horiz-adv-x="1138" d="M-10 1196l579 328l580 -328l-25 -45l-557 252l-555 -252z" />
<glyph unicode="_" horiz-adv-x="1740" d="M0 -213h1741v-86h-1741v86z" />
<glyph unicode="`" d="M285 1319q0 46 36.5 84.5t81.5 38.5q47 0 89 -49l231 -279l-55 -67l-310 172q-73 38 -73 100z" />
<glyph unicode="a" horiz-adv-x="1120" d="M59 215q0 66 36.5 120t98.5 90t146.5 60.5t176.5 35t192 11.5v82q0 123 -58.5 184.5t-165.5 61.5q-87 0 -155 -18q49 -32 49 -99q0 -56 -36 -88t-85 -32q-47 0 -84 31t-37 91q0 183 357 183q212 0 325 -85.5t113 -230.5v-442q0 -23 2.5 -33.5t13.5 -23.5t38.5 -18.5 t74.5 -6.5q18 0 26 -1.5t14.5 -11.5t6.5 -30q0 -17 -2.5 -26t-11.5 -13.5t-17 -5t-28 -0.5h-105q-50 0 -87 6t-59 20t-35 26.5t-18.5 35.5t-6.5 36.5t-1 39.5q-34 -75 -111 -125.5t-188 -50.5q-38 0 -77 4t-83.5 13.5t-82 26.5t-69 41t-49.5 60.5t-18 81.5zM287 217 q0 -69 54 -115.5t130 -46.5q23 0 50.5 5t61.5 20.5t61.5 39.5t46 67t18.5 98v192q-64 -3 -121.5 -12.5t-113.5 -29.5t-96.5 -48.5t-65.5 -72t-25 -97.5z" />
<glyph unicode="b" horiz-adv-x="1280" d="M72 1317v88l354 16v-604q134 105 301 105q212 0 342.5 -127.5t130.5 -337.5q0 -217 -141 -343t-359 -126q-174 0 -299 131q-42 -52 -102 -119h-86v1237q0 58 -21 69t-120 11zM436 199q93 -144 244 -144q148 0 225 119q23 35 34.5 90.5t13 93t1.5 101.5q0 32 -0.5 50 t-2.5 54t-6.5 59t-13 56.5t-21 55.5t-32 47t-44 39.5t-59 24t-75.5 9.5q-71 0 -142 -33t-122 -102v-520z" />
<glyph unicode="c" horiz-adv-x="1024" d="M78 455q0 92 29 174t87.5 150.5t159 108.5t232.5 40q346 0 346 -180q0 -64 -39 -93.5t-82 -29.5q-45 0 -83 30.5t-38 89.5q0 56 33 89l6 6q0 6 -54 10t-81 4q-43 0 -79.5 -10t-62.5 -25t-47 -39.5t-34 -47.5t-22.5 -55.5t-14 -56.5t-7 -57.5t-3 -51.5t-0.5 -46 q0 -404 288 -404q53 0 97.5 15.5t70.5 35t47 48t29 44.5t14 34q7 19 13.5 22.5t31.5 3.5q11 0 15.5 -0.5t12.5 -2t11.5 -7t3.5 -14.5q0 -8 -8.5 -32t-35 -62.5t-66 -73t-112.5 -59.5t-163 -25q-225 0 -360 128.5t-135 338.5z" />
<glyph unicode="d" horiz-adv-x="1280" d="M78 455q0 213 138 340t359 127q163 0 277 -99v414q0 58 -21 69t-120 11v88l354 16v-1253q0 -58 21 -69t120 -11v-88l-364 -12v106q-125 -106 -289 -106q-209 0 -342 126t-133 341zM324 451q0 -32 0.5 -50t2.5 -54t6.5 -59.5t13 -57t21 -55.5t32 -47t44 -39.5t59 -24 t75.5 -9.5q159 0 264 152v520q-96 127 -242 127q-23 0 -48 -4t-60 -16t-68 -39.5t-55 -67.5q-21 -36 -31.5 -88t-12 -87.5t-1.5 -100.5z" />
<glyph unicode="e" horiz-adv-x="1050" d="M63 461q0 131 56 235.5t169.5 168t268.5 63.5q207 0 320 -113q61 -63 84.5 -151.5t23.5 -159.5q0 -36 -10.5 -43.5t-48.5 -7.5h-617q0 -35 1 -58.5t6.5 -68.5t16.5 -76.5t33 -69.5t52.5 -62t79.5 -40.5t110 -16.5q39 0 79 9.5t80.5 29t74.5 55t53 83.5q10 22 16.5 27 t30.5 5q43 0 43 -30q0 -13 -11.5 -39.5t-41.5 -64t-73 -70t-115.5 -55.5t-159.5 -23q-233 0 -377 129.5t-144 343.5zM309 512h488q-1 27 -2.5 51.5t-7.5 61.5t-16 67t-28.5 62.5t-42.5 54.5t-61 36.5t-82 14.5q-65 0 -117 -29.5t-82 -80.5q-20 -34 -31 -79.5t-13 -72 t-5 -86.5z" />
<glyph unicode="f" horiz-adv-x="704" d="M80 821v88h151v209q0 69 25.5 124t66.5 90t96 59t111 33.5t115 9.5q103 0 161 -51t58 -119q0 -61 -38.5 -91t-80.5 -30q-45 0 -81.5 31t-36.5 88q0 66 49 98q-18 6 -39 6q-24 0 -47.5 -5t-53 -21t-51 -41.5t-36.5 -71.5t-15 -107v-211h244v-88h-234v-733h179v-88 q-49 4 -275 4q-211 0 -258 -4v88h141v733h-151z" />
<glyph unicode="g" d="M63 -154q0 41 20 74.5t51 54t56.5 31.5t49.5 17q-36 28 -63 81t-27 115q0 52 21 102t50 82q-106 86 -106 218q0 56 22.5 107.5t68 96t124 71t180.5 26.5q151 0 268 -68q37 32 95.5 56t119.5 24q59 0 91 -36t32 -79q0 -34 -22 -58t-60 -24t-60 24t-22 58q0 23 13 45 q-80 -9 -144 -45q27 -22 55.5 -76t28.5 -122q0 -56 -22.5 -108t-68 -96.5t-124 -71t-180.5 -26.5q-144 0 -244 54q-24 -28 -24 -74q0 -23 9 -48.5t35.5 -51t67.5 -31.5q10 -2 152 -2q115 0 170 -1.5t124 -13t115 -34.5q23 -11 38 -20t43 -32t45 -48.5t30.5 -69t13.5 -94.5 q0 -120 -132 -192.5t-380 -72.5q-135 0 -237.5 23t-160 61t-85 82t-27.5 92zM231 -154q0 -32 16.5 -63.5t53 -61.5t107.5 -48.5t167 -18.5t167 19t107 49.5t52.5 61t16.5 60.5q0 133 -293 133h-234q-160 0 -160 -131zM332 621q0 -28 0.5 -43.5t4 -44t9.5 -45.5t19 -39 t31.5 -34t47.5 -21t66 -9t66 9t47.5 21t31.5 34t19 39t9.5 45.5t4 44t0.5 43.5t-0.5 43.5t-4 44t-9.5 45.5t-19 38.5t-31.5 34t-47.5 21t-66 8.5t-66 -8.5t-47.5 -21t-31.5 -34t-19 -38.5t-9.5 -45.5t-4 -44t-0.5 -43.5z" />
<glyph unicode="h" horiz-adv-x="1280" d="M86 0v88h141v1149q0 58 -21 69t-120 11v88l354 16v-706h2q10 22 26 45.5t45.5 53.5t65 53t88 39t111.5 16q165 0 237 -72.5t72 -222.5v-539h142v-88q-47 4 -254 4q-205 0 -252 -4v88h141v561q0 112 -29.5 158.5t-89.5 46.5q-51 0 -101.5 -21t-94 -60.5t-71 -104.5 t-27.5 -144v-436h141v-88q-47 4 -254 4q-205 0 -252 -4z" />
<glyph unicode="i" horiz-adv-x="641" d="M90 0v88h141v649q0 58 -20.5 69t-114.5 11v88l348 17v-834h127v-88q-49 4 -237 4q-197 0 -244 -4zM172 1245q0 61 44 104.5t106 43.5q59 0 103 -43t44 -105q0 -60 -43.5 -103.5t-106.5 -43.5q-60 0 -103.5 42.5t-43.5 104.5z" />
<glyph unicode="j" horiz-adv-x="704" d="M-109 -229q0 54 34 87t87 33q52 0 86.5 -33t34.5 -87q0 -28 -11.5 -52t-21.5 -34t-18 -15q54 -12 84 -12q44 0 75.5 25t46.5 66.5t21 80t6 78.5v827q0 27 -1.5 39t-12 23.5t-31.5 15.5q-31 4 -110 4v88l368 17v-1014q0 -76 -32 -138t-84.5 -100.5t-116 -59t-129.5 -20.5 q-117 0 -196 48t-79 133zM233 1245q0 61 43.5 104.5t106.5 43.5q59 0 103 -43t44 -105q0 -61 -43 -104t-106 -43q-60 0 -104 42.5t-44 104.5z" />
<glyph unicode="k" horiz-adv-x="1216" d="M72 0v88h141v1149q0 58 -21 69t-120 11v88l354 16v-942l373 299q16 16 16 21q0 11 -25 16.5t-49 5.5v88q47 -4 215 -4q117 0 170 4v-88q-66 0 -106.5 -6.5t-52.5 -13t-29 -19.5l-258 -209l342 -442q18 -22 28 -29.5t31 -11.5q23 -2 97 -2v-88q-86 4 -220 4 q-190 0 -239 -4v88q69 0 69 21q0 6 -14 22l-248 320q-16 -13 -38.5 -32t-38.5 -32.5t-31 -24.5v-274h141v-88q-47 4 -244 4q-196 0 -243 -4z" />
<glyph unicode="l" horiz-adv-x="641" d="M90 0v88h141v1149q0 58 -21 69t-120 11v88l354 16v-1333h142v-88q-47 4 -248 4t-248 -4z" />
<glyph unicode="m" horiz-adv-x="1921" d="M86 0v88h141v649q0 58 -21 69t-120 11v88l346 17v-226h2q18 41 45.5 77.5t69 71.5t101.5 56t130 21q55 0 99 -8t88 -28.5t74 -63.5t42 -105q12 24 27.5 47t45.5 53t65 52t87 37.5t111 15.5q166 0 238 -74t72 -221v-539h141v-88q-47 4 -254 4q-205 0 -252 -4v88h141v561 q0 114 -30 159.5t-91 45.5q-50 0 -100.5 -21t-94.5 -60t-71.5 -104t-27.5 -145v-436h141v-88q-47 4 -254 4q-205 0 -252 -4v88h141v561q0 114 -30 159.5t-91 45.5q-50 0 -100.5 -21t-94.5 -60t-71.5 -104t-27.5 -145v-436h141v-88q-47 4 -254 4q-205 0 -252 -4z" />
<glyph unicode="n" horiz-adv-x="1280" d="M86 0v88h141v649q0 58 -21 69t-120 11v88l346 17v-226h2q51 113 140.5 169.5t203.5 56.5q165 0 237 -72.5t72 -222.5v-539h142v-88q-47 4 -254 4q-205 0 -252 -4v88h141v561q0 112 -29.5 158.5t-89.5 46.5q-51 0 -101.5 -21t-94 -60.5t-71 -104.5t-27.5 -144v-436h141 v-88q-47 4 -254 4q-205 0 -252 -4z" />
<glyph unicode="o" d="M63 449q0 101 33.5 187.5t96.5 151.5t161.5 102.5t220.5 37.5q237 0 373.5 -133.5t136.5 -345.5q0 -201 -135 -331t-377 -130q-237 0 -373.5 128t-136.5 333zM309 469q0 -38 0.5 -59t2.5 -60t6.5 -62t14 -57.5t22.5 -55.5t33 -45t46 -37.5t62 -22.5t79 -9q64 0 111.5 17 t75 52.5t44.5 69t24 89.5t8.5 89t1.5 91q0 66 -1.5 103t-11 89.5t-28.5 86.5q-29 48 -86.5 80t-139.5 32q-70 0 -131.5 -30t-93.5 -89q-18 -34 -27 -85t-10.5 -86.5t-1.5 -100.5z" />
<glyph unicode="p" horiz-adv-x="1280" d="M72 -309h141v1046q0 58 -21 69t-120 11v88l354 17v-107q133 107 307 107q208 0 337.5 -127t129.5 -338q0 -146 -67 -253.5t-179 -161.5t-254 -54q-155 0 -264 96v-393h142v-88q-47 4 -254 4q-205 0 -252 -4v88zM436 197q46 -70 109 -106t131 -36q41 0 79.5 13t75 43.5 t63.5 75.5t43.5 114.5t16.5 155.5q0 191 -73 291t-181 100q-68 0 -139.5 -31.5t-124.5 -99.5v-520z" />
<glyph unicode="q" horiz-adv-x="1216" d="M78 455q0 214 139 340.5t356 126.5q190 0 308 -170l108 170h76v-1231h141v-88q-47 4 -254 4q-205 0 -252 -4v88h142v413q-123 -116 -289 -116q-208 0 -341.5 126t-133.5 341zM324 453q0 -195 73.5 -296.5t180.5 -101.5q30 0 60.5 7.5t68.5 26t76.5 58.5t68.5 97v344 q0 37 -17.5 80.5t-48 84.5t-80 68t-106.5 27q-49 0 -95 -20.5t-88 -64t-67.5 -123.5t-25.5 -187z" />
<glyph unicode="r" horiz-adv-x="942" d="M72 0v88h141v649q0 58 -21 69t-120 11v88l336 17v-228h2q77 228 260 228q80 0 142 -44t62 -118q0 -58 -37 -88.5t-81 -30.5q-45 0 -82 30.5t-37 88.5q0 60 43 94q-49 0 -89.5 -18.5t-66 -47t-45 -68t-29.5 -75.5t-15.5 -76.5t-7 -64t-1.5 -43.5v-373h178v-88 q-49 4 -274 4q-211 0 -258 -4z" />
<glyph unicode="s" horiz-adv-x="909" d="M78 41v235q0 37 6 45.5t37 8.5q26 0 33 -6t16 -37q66 -232 291 -232q18 0 32.5 1t45 4.5t53.5 14t47.5 27t37.5 45t13 66.5q0 60 -48 100.5t-116 55.5q-10 0 -131 22q-24 4 -46 9t-63 17.5t-74 32.5t-65 48t-50.5 70.5t-18.5 93.5q0 55 18 98.5t43.5 70.5t64.5 47 t70.5 29t72.5 14.5t59 6t40 0.5q129 0 207 -45q32 19 41 26q33 19 47 19q22 0 26.5 -10.5t4.5 -43.5v-176q0 -37 -6 -45t-37 -8q-16 0 -22.5 1t-13 7t-7.5 19q-2 24 -5 41t-17.5 48.5t-38.5 52t-71.5 36.5t-111.5 16q-18 0 -32 -1t-44.5 -4t-53 -12t-46 -22.5t-36.5 -37.5 t-13 -56q0 -20 8 -37.5t19 -29.5t32.5 -23t38.5 -17.5t49 -14t51 -11.5t56 -10q68 -12 102 -20.5t78 -29t84 -53.5q94 -85 94 -202q0 -56 -15 -102t-38 -76t-56.5 -53t-66 -35t-70.5 -19.5t-65.5 -9.5t-56.5 -2q-149 0 -240 71l-53 -39q-20 -16 -31 -23t-15 -8t-13 -1 q-22 0 -26.5 10t-4.5 43z" />
<glyph unicode="t" horiz-adv-x="897" d="M43 821v68q73 2 132 38t95.5 94t55.5 129.5t20 149.5h86v-391h295v-88h-295v-575q0 -185 123 -185q52 0 88.5 50t36.5 145v106h86v-108q0 -117 -65 -191.5t-177 -74.5q-48 0 -89.5 6.5t-84.5 24.5t-73 46.5t-49 76t-19 110.5v569h-166z" />
<glyph unicode="u" horiz-adv-x="1280" d="M86 817v88l365 17v-703q0 -50 3.5 -74.5t19 -48.5t48.5 -32.5t90 -8.5q117 0 184.5 80t67.5 201v401q0 58 -21 69t-120 11v88l364 17v-754q0 -58 21.5 -69t120.5 -11v-88l-355 -12v166h-2q-88 -166 -288 -166q-176 0 -266.5 59t-90.5 205v485q0 58 -21 69t-120 11z" />
<glyph unicode="v" horiz-adv-x="1216" d="M49 821v88q53 -4 232 -4q198 0 245 4v-88h-112l264 -575l240 526l10 25q0 10 -29.5 17t-71.5 7v88l177 -4q87 0 161 4v-88q-62 0 -93.5 -6t-40 -14t-17.5 -27l-338 -739q-13 -29 -27 -37t-41 -8q-33 0 -43.5 8.5t-25.5 40.5l-361 782h-129z" />
<glyph unicode="w" horiz-adv-x="1665" d="M47 821v88q61 -4 225 -4q195 0 242 4v-88h-117l221 -545l156 388l8 24q0 7 -10 34t-16 38q-14 31 -25 61h-121v88l211 -4q177 0 226 4v-88h-117l235 -583l215 532l9 25q0 26 -119 26v88q74 -4 184 -4q101 0 160 4v-88q-58 0 -86.5 -6t-36.5 -14t-16 -29l-297 -733 q-11 -30 -22.5 -39.5t-43.5 -9.5q-16 0 -24.5 1.5t-20.5 12t-20 31.5l-218 538l-217 -542q-7 -19 -19 -28.5t-20.5 -11t-23.5 -1.5q-32 0 -44.5 10.5t-23.5 40.5l-313 780h-121z" />
<glyph unicode="x" horiz-adv-x="1216" d="M37 0v88q82 0 125 5.5t56 13t28 24.5l266 301l-319 389h-146v88q57 -4 229 -4q195 0 242 4v-88h-86l203 -248l178 201l14 23q0 10 -25.5 17t-56.5 7v88q57 -4 205 -4l189 4v-88q-81 0 -125.5 -6t-58 -13.5t-27.5 -23.5l-238 -272l346 -418h144v-88q-57 4 -228 4 q-194 0 -243 -4v88h86l-228 277l-205 -232l-14 -20q0 -10 26 -17.5t56 -7.5v-88q-57 4 -203 4z" />
<glyph unicode="y" horiz-adv-x="1216" d="M45 -227q0 51 32 81.5t81 30.5q47 0 78.5 -30t31.5 -80q0 -73 -65 -105q23 -12 55 -12q41 0 77.5 16.5t60 37.5t48.5 58.5t36.5 59.5t29.5 61q5 12 24.5 54.5t24.5 54.5l-379 821h-131v88q53 -4 234 -4q196 0 245 4v-88h-112l262 -567l240 516q8 24 8 25q0 12 -25 18.5 t-49 6.5l-25 1v88l177 -4q91 0 161 4v-88q-63 0 -95 -6t-40.5 -13.5t-15.5 -25.5l-436 -944q-17 -38 -44.5 -76.5t-67 -77.5t-94.5 -63.5t-114 -24.5q-90 0 -151.5 54.5t-61.5 128.5z" />
<glyph unicode="z" horiz-adv-x="1024" d="M63 41q0 17 19 41l569 760h-184q-84 0 -138 -16t-85 -54t-44 -87t-18 -128h-86l23 352h741q24 0 34 -1.5t18 -10t8 -27.5q0 -15 -19 -39l-567 -757h186q95 0 156 20t95 66t48 101.5t21 144.5h86l-35 -406h-768q-25 0 -35 1.5t-17.5 10.5t-7.5 29z" />
<glyph unicode="{" horiz-adv-x="1177" d="M160 512q0 17 6 25t13 9.5t26 2.5q127 6 203 76q47 41 57 81.5t10 147.5v422q2 119 130.5 189.5t346.5 70.5q38 0 51 -5.5t13 -31.5q0 -17 -6 -25t-13 -9.5t-26 -2.5q-105 -6 -189 -57q-37 -27 -56 -60.5t-21.5 -52.5t-2.5 -51v-430q0 -28 -0.5 -43t-5 -44.5t-13 -48.5 t-26.5 -46t-43 -45.5t-64.5 -38t-90.5 -33.5q122 -33 181.5 -99t61.5 -139v-485q0 -49 7 -72q21 -63 86.5 -105.5t185.5 -49.5q19 -2 27 -9.5t8 -27.5q0 -26 -13 -31.5t-51 -5.5q-35 0 -70 2t-84.5 9t-91.5 18.5t-86 33.5t-75 51t-50.5 73t-19.5 98v430q0 80 -4 96 q-16 66 -83 117.5t-193 58.5q-19 2 -27 9.5t-8 27.5z" />
<glyph unicode="|" horiz-adv-x="653" d="M264 -422v1868q0 17 1.5 28t6.5 27.5t19.5 25.5t36.5 9q21 0 35 -9t19 -26t6 -28t1 -27v-1868q0 -17 -1 -28t-6.5 -27.5t-19.5 -25.5t-36 -9q-62 0 -62 90z" />
<glyph unicode="}" horiz-adv-x="1177" d="M160 -475q0 17 6 25t13 9.5t26 2.5q116 6 194 61q35 27 53 58.5t20.5 50.5t2.5 51v430q0 39 1.5 62t14.5 63.5t36.5 68t72.5 57t119 48.5q-124 34 -183 99.5t-61 138.5v485q0 52 -6 72q-20 65 -88 107t-186 48q-19 2 -27 9.5t-8 27.5q0 26 13 31.5t50 5.5q41 0 80 -2.5 t88 -10t91 -20t84 -34.5t71 -51t47 -72t18 -95v-430q0 -81 7 -100q25 -82 97 -124.5t175 -47.5q19 -2 27 -9.5t8 -27.5q0 -17 -6 -25t-13 -9.5t-26 -2.5q-72 -4 -123.5 -27t-75.5 -47q-49 -45 -59.5 -84t-10.5 -147v-422q-2 -116 -128 -188t-351 -72q-37 0 -50 5.5t-13 31.5 z" />
<glyph unicode="~" horiz-adv-x="1138" d="M0 430l111 90q45 37 116 72q83 37 150 37q38 0 77.5 -11.5t65 -24t62.5 -34.5q49 -28 72 -39.5t63 -24t78 -12.5q139 0 313 146l29 -35l-111 -90q-44 -36 -117 -72q-83 -37 -149 -37q-38 0 -77.5 11.5t-65 24t-62.5 34.5q-49 28 -72 39.5t-63 24t-78 12.5 q-139 0 -313 -146z" />
<glyph unicode="&#xa0;" />
<glyph unicode="&#xa1;" horiz-adv-x="702" d="M203 -287q0 27 4 56l98 766q3 30 10 37.5t35 7.5t35 -7.5t10 -37.5l99 -766q4 -29 4 -56q0 -62 -47 -98.5t-101 -36.5t-100.5 35.5t-46.5 99.5zM203 877q0 61 42.5 104t104.5 43t105 -43t43 -104t-43 -104.5t-105 -43.5q-61 0 -104 43t-43 105z" />
<glyph unicode="&#xa2;" horiz-adv-x="1024" d="M78 455q0 86 25.5 163.5t76.5 144t138.5 110t201.5 53.5v69q0 19 12 31t31 12t31 -12t12 -31v-67q326 -6 326 -180q0 -64 -39 -93.5t-82 -29.5q-45 0 -83 30.5t-38 89.5q0 56 33 89l6 6q0 7 -123 14v-793h6q53 0 97.5 15.5t70.5 35t47 48t29 44.5t14 34q7 19 13.5 22.5 t31.5 3.5q11 0 15.5 -0.5t12.5 -2t11.5 -7t3.5 -14.5q0 -8 -8 -30.5t-32.5 -59.5t-60.5 -70.5t-102.5 -60.5t-148.5 -31v-74q0 -19 -12 -31t-31 -12t-31 12t-12 31v76q-202 15 -322 141.5t-120 323.5zM324 465q0 -332 196 -391v772q-40 -9 -72 -30t-52 -45.5t-34.5 -60 t-21.5 -63t-11 -67.5t-4.5 -61t-0.5 -54z" />
<glyph unicode="&#xa3;" horiz-adv-x="1740" d="M131 160q0 52 30 89.5t82 57t110 28.5t126 9q94 0 195 -37q-4 42 -14.5 91.5t-21 84t-27.5 91t-25 85.5h-310v86h287q-20 88 -20 164q0 134 63.5 248t174 181t241.5 67q108 0 202 -41t153 -118.5t59 -174.5q0 -49 -36 -85t-85 -36q-51 0 -86 35.5t-35 85.5t34 85t83 36 q-42 60 -120 93.5t-169 33.5q-85 0 -145 -61.5t-86.5 -151.5t-26.5 -197q0 -65 18 -164h363v-86h-344q8 -33 28.5 -108.5t30.5 -118t20 -106t11 -117.5q71 -35 116 -54t110.5 -36t125.5 -17q113 0 197 54.5t84 146.5h86q0 -96 -26 -177.5t-83 -136.5t-135 -55q-37 0 -73 4.5 t-77.5 18.5t-66.5 22.5t-74 34t-64 33t-72 40.5t-65 38q-18 -39 -56.5 -67.5t-84.5 -44t-110.5 -24.5t-119.5 -11.5t-126 -2.5q-99 0 -172.5 51t-73.5 134zM217 160q0 -49 47 -74t113 -25q111 0 196 41.5t99 118.5q-98 37 -193 37h-47t-44.5 -1.5t-45 -4t-39.5 -7 t-35.5 -11.5t-26 -17t-19 -24.5t-5.5 -32.5z" />
<glyph unicode="&#xa4;" horiz-adv-x="1792" d="M334.5 -4q-3.5 15 4.5 29.5t14 21.5t18 19l153 153q-100 130 -100 293t100 293l-153 153q-12 12 -18 19t-14 21.5t-4.5 29.5t17.5 29t28 17t29.5 -6t21.5 -13.5t20 -16.5l153 -153q131 100 293 100q164 0 291 -100l151 151q59 59 101 17q41 -41 -21 -97l-151 -151 q100 -130 100 -293q0 -166 -100 -293l153 -153q11 -11 17.5 -19t14 -22t4.5 -29t-17 -29q-41 -39 -99 19l-153 153q-127 -100 -291 -100q-166 0 -293 100l-153 -153q-11 -10 -14.5 -13t-17 -12t-22 -10t-21.5 2t-24 14q-14 14 -17.5 29zM539 512q0 -149 104.5 -253.5 t253.5 -104.5q148 0 252 104.5t104 253.5t-104 253.5t-252 104.5q-149 0 -253.5 -104.5t-104.5 -253.5z" />
<glyph unicode="&#xa5;" horiz-adv-x="1740" d="M33 1317v88q55 -4 332 -4q286 0 352 4v-88h-172l399 -592h53l367 545l14 24q-51 23 -155 23v88q47 -4 252 -4q174 0 231 4v-88h-39q-74 0 -114 -6.5t-50.5 -14t-21.5 -24.5l-371 -547h283v-86h-340l-54 -78v-176h394v-86h-394v-211h220v-88q-66 4 -349 4q-289 0 -348 -4 v88h217v211h-391v86h391v176l-53 78h-338v86h281l-400 592h-196z" />
<glyph unicode="&#xa6;" horiz-adv-x="653" d="M264 326q0 21 18.5 32t45.5 11q25 0 43 -11t18 -32v-748q0 -17 -1 -28t-6.5 -27.5t-19.5 -25.5t-36 -9q-62 0 -62 90v748zM264 698v748q0 17 1.5 28t6.5 27.5t19.5 25.5t36.5 9q21 0 35 -9t19 -26t6 -28t1 -27v-748q0 -21 -18 -32t-43 -11q-27 0 -45.5 11t-18.5 32z" />
<glyph unicode="&#xa7;" horiz-adv-x="1390" d="M119 614q0 91 57 160.5t150 104.5q-72 98 -72 213q0 105 62 190.5t162 131.5t216 46q160 0 274.5 -104t114.5 -256q0 -51 -34.5 -86t-85.5 -35t-86 35t-35 86q0 46 31 80.5t77 40.5q-42 44 -111 68t-145 24q-102 0 -177 -64t-75 -157q0 -31 14 -58.5t34 -46t53.5 -36 t60 -28.5t66.5 -24l241 -80q155 -50 257 -158.5t102 -250.5q0 -91 -57 -161.5t-150 -105.5q72 -98 72 -211q0 -105 -62 -190.5t-162.5 -131.5t-216.5 -46q-160 0 -274.5 104t-114.5 256q0 51 35 86t86 35t86 -35t35 -86q0 -46 -31.5 -80.5t-77.5 -40.5q42 -44 111 -68 t145 -24q102 0 177 64t75 157q0 39 -18.5 70t-55.5 54t-70 37.5t-83 31.5l-242 80q-154 50 -256 158.5t-102 250.5zM332 614q0 -129 215 -200l241 -80q112 -38 201 -111q33 28 50.5 78.5t17.5 108.5q0 129 -215 200l-242 80q-118 40 -201 111q-67 -61 -67 -187z" />
<glyph unicode="&#xa8;" d="M199 1245q0 55 38.5 94t94.5 39q54 0 93.5 -38.5t39.5 -94.5q0 -55 -39.5 -94t-95.5 -39q-53 0 -92 38.5t-39 94.5zM686 1245q0 55 38.5 94t94.5 39q54 0 93.5 -38.5t39.5 -94.5q0 -55 -39 -94t-96 -39q-53 0 -92 38.5t-39 94.5z" />
<glyph unicode="&#xa9;" horiz-adv-x="1404" d="M0 702q0 143 55.5 273.5t150 224.5t224 149.5t272.5 55.5q191 0 353 -94t256 -256t94 -353q0 -143 -55.5 -272.5t-149.5 -224t-224.5 -150t-273.5 -55.5q-114 0 -221 35.5t-193.5 100.5t-151.5 151.5t-100.5 193.5t-35.5 221zM115 702q0 -119 46.5 -228t125 -187.5 t187.5 -125t228 -46.5q160 0 295.5 78.5t214 214t78.5 294.5q0 160 -78.5 295.5t-214 214t-295.5 78.5q-159 0 -294.5 -78.5t-214 -214t-78.5 -295.5zM340 702q0 149 101 241.5t268 92.5q105 0 184 -67l70 67q16 0 19 -4t3 -20v-205q0 -18 -2.5 -21.5t-19.5 -3.5 q-21 0 -23 9q-10 59 -34 101.5t-56 63.5t-61.5 30t-59.5 9q-132 0 -199 -80q-59 -69 -59 -213q0 -88 17 -135.5t47 -81.5q67 -75 196 -75q47 0 91.5 17t81 62.5t40.5 112.5q2 10 21 10q11 0 15.5 -3.5t4.5 -14.5q0 -88 -77.5 -156.5t-198.5 -68.5q-169 0 -269 93t-100 240z " />
<glyph unicode="&#xaa;" horiz-adv-x="997" d="M59 932q0 57 46 101t125 69.5t173.5 38t200.5 12.5v57q0 86 -49 129t-139 43q-74 0 -131 -12q43 -22 43 -70q0 -38 -31 -60.5t-72 -22.5q-40 0 -71 22t-31 64q0 127 301 127q178 0 272.5 -60t94.5 -162v-309q0 -16 2 -23t11 -16.5t32.5 -13t62.5 -4.5q16 0 22.5 -1 t12.5 -8t6 -22q0 -22 -10 -26.5t-41 -4.5h-88q-61 0 -99 9.5t-52.5 29.5t-17.5 34.5t-3 41.5q-29 -52 -94 -87.5t-158 -35.5q-51 0 -101 7t-101.5 23.5t-83.5 50t-32 79.5zM102 680q0 12 12.5 21.5t30.5 9.5h709q17 0 30 -9.5t13 -21.5t-13 -21.5t-30 -9.5h-709 q-18 0 -30.5 9.5t-12.5 21.5zM250 932q0 -49 44.5 -81t108.5 -32q25 0 55 7t65 22.5t58 49.5t23 81v135q-68 -2 -127 -12.5t-112 -31t-84 -56t-31 -82.5z" />
<glyph unicode="&#xab;" horiz-adv-x="1280" d="M256 483q0 11 8 19q210 188 309 450q7 15 23 15h18q11 0 18 -8t7 -21q-47 -241 -158 -455q112 -216 158 -454q0 -13 -7 -21t-18 -8h-18q-17 0 -23 16q-100 262 -309 449q-8 8 -8 18zM641 483q0 11 8 19q210 188 309 450q8 15 23 15h18q11 0 18 -8t7 -21 q-47 -241 -158 -455q112 -216 158 -454q0 -13 -7 -21t-18 -8h-18q-17 0 -23 16q-100 262 -309 449q-8 8 -8 18z" />
<glyph unicode="&#xac;" horiz-adv-x="1792" d="M127 733q0 23 17 40.5t40 17.5h1422q23 0 40 -17.5t17 -40.5v-444q0 -23 -17 -40.5t-40 -17.5t-40.5 17.5t-17.5 40.5v387h-1364q-23 0 -40 17t-17 40z" />
<glyph unicode="&#xad;" horiz-adv-x="768" d="M25 360v189h614v-189h-614z" />
<glyph unicode="&#xae;" horiz-adv-x="1404" d="M0 702q0 143 55.5 273.5t150 224.5t224 149.5t272.5 55.5q191 0 353 -94t256 -256t94 -353q0 -143 -55.5 -272.5t-149.5 -224t-224.5 -150t-273.5 -55.5q-114 0 -221 35.5t-193.5 100.5t-151.5 151.5t-100.5 193.5t-35.5 221zM115 702q0 -119 46.5 -228t125 -187.5 t187.5 -125t228 -46.5q160 0 295.5 78.5t214 214t78.5 294.5q0 160 -78.5 295.5t-214 214t-295.5 78.5q-159 0 -294.5 -78.5t-214 -214t-78.5 -295.5zM358 387v39h101v563h-101v41h349q125 0 197.5 -49.5t72.5 -122.5q0 -46 -35.5 -87.5t-122.5 -65.5q29 -9 50.5 -23.5 t32.5 -27.5t18.5 -34.5t9 -32.5t4.5 -32q4 -40 7 -60.5t10.5 -44.5t21.5 -34t35 -10q22 0 39 17t20 50q1 8 2 10.5t5 5.5t13 3q21 0 21 -19q0 -8 -4 -21.5t-14 -32t-34 -31.5t-57 -13q-93 0 -145 35q-32 21 -39.5 48.5t-7.5 84.5q0 51 -4.5 71t-24.5 43q-28 35 -88 35h-112 v-266h100v-39h-160h-160zM578 725h110q45 0 76.5 9.5t47 21.5t23.5 33t9.5 34t1.5 35t-1.5 35.5t-10 33.5t-24 32t-46 21t-74.5 9h-112v-264z" />
<glyph unicode="&#xaf;" d="M162 1196v98h829v-98h-829z" />
<glyph unicode="&#xb0;" horiz-adv-x="864" d="M113 1085q0 132 93.5 226t225.5 94t226 -94t94 -226t-94 -225.5t-226 -93.5t-225.5 93.5t-93.5 225.5zM227 1085q0 -86 60 -145t145 -59t145 59t60 145q0 85 -60 145t-145 60t-145 -60t-60 -145z" />
<glyph unicode="&#xb1;" horiz-adv-x="1792" d="M127 55q0 20 8 33t23 17.5t25.5 6t25.5 1.5h631v540h-631q-82 0 -82 56q0 20 8 32.5t23 17.5t25 6t26 1h631v571q0 16 1 26t6 25t17.5 23t32.5 8q55 0 55 -82v-571h629q16 0 26 -1t25 -6t23 -17.5t8 -32.5q0 -56 -82 -56h-629v-540h629q15 0 25.5 -1.5t25.5 -6t23 -17.5 t8 -33q0 -55 -82 -55h-1372q-82 0 -82 55z" />
<glyph unicode="&#xb2;" horiz-adv-x="827" d="M82 625v20q0 18 2 23t14 12l320 278q137 123 137 238q0 72 -52 126t-147 54q-107 0 -170 -61q38 -3 65.5 -24.5t27.5 -57.5q0 -38 -30.5 -60t-68.5 -22q-35 0 -66.5 20t-31.5 64q0 86 91 140.5t220 54.5q151 0 251.5 -63t100.5 -169q0 -22 -4 -41.5t-15 -39t-20.5 -34 t-31.5 -33.5t-36.5 -31.5t-46.5 -33.5t-51 -33t-59 -37l-213 -147h230q137 0 147 10q22 12 37 111h63l-43 -264h-620z" />
<glyph unicode="&#xb3;" horiz-adv-x="827" d="M70 788q0 38 29 63.5t75 25.5q44 0 73 -24.5t29 -61.5q0 -31 -19.5 -55t-63.5 -31q78 -48 198 -48q45 0 77.5 15t48 34t24 49.5t9.5 47t1 41.5q0 26 -1 43t-10 47t-25 48.5t-49.5 33t-80.5 14.5h-72q-23 0 -30 3.5t-7 17.5q0 13 9 18q12 4 53 4q49 2 77.5 10.5t55.5 36.5 q53 58 53 144q0 17 -1 27.5t-7.5 30.5t-19.5 32t-39.5 22t-63.5 10q-111 0 -172 -51q47 -5 65.5 -28t18.5 -50q0 -39 -28.5 -59t-65.5 -20q-36 0 -66 19t-30 60q0 75 81 124t205 49q148 0 230 -48.5t82 -121.5q0 -71 -60.5 -125.5t-160.5 -79.5q81 -12 137.5 -38.5t82.5 -59 t36 -59.5t10 -54q0 -99 -93.5 -167.5t-267.5 -68.5q-140 0 -233.5 49t-93.5 131z" />
<glyph unicode="&#xb4;" d="M430 1114l232 279q42 49 88 49q45 0 81.5 -38.5t36.5 -84.5q0 -62 -73 -100l-310 -172z" />
<glyph unicode="&#xb5;" horiz-adv-x="1280" d="M86 -309h141v1042q0 61 -20.5 72.5t-120.5 11.5v88l365 17v-699q0 -35 1 -53.5t6 -41.5t15 -33.5t28 -21t45 -14.5t66 -4q114 0 183 77t69 208v393q0 61 -20.5 72.5t-120.5 11.5v88l364 17v-750q0 -61 21 -72.5t121 -11.5v-88q-79 -6 -176 -6q-99 0 -179 -6v166h-2 q-22 -40 -48.5 -70t-55.5 -47t-53 -28t-53 -15t-43 -5t-35 -1q-84 0 -133 8v-305h141v-88q-47 4 -254 4q-205 0 -252 -4v88z" />
<glyph unicode="&#xb6;" horiz-adv-x="1439" d="M131 936q0 138 82 250.5t216.5 173.5t289.5 61h561q18 0 29 -1t28 -6.5t26 -19.5t9 -36q0 -62 -92 -62h-104v-1603q0 -17 -1.5 -28t-6.5 -27.5t-19.5 -25.5t-36.5 -9q-21 0 -35 9t-19 26t-6 27.5t-1 27.5v1603h-164v-1603q0 -17 -1.5 -28t-6.5 -27.5t-19.5 -25.5 t-36.5 -9q-21 0 -35 9t-19 26t-6 27.5t-1 27.5v758q-283 17 -457 149t-174 336z" />
<glyph unicode="&#xb7;" horiz-adv-x="1792" d="M750 702q0 62 43 105t104 43t104 -43t43 -105t-43 -104.5t-104 -42.5t-104 42.5t-43 104.5z" />
<glyph unicode="&#xb8;" horiz-adv-x="1024" d="M205 -324h43q49 0 75 0.5t71.5 2.5t71 7.5t53.5 14t41 23t13 34.5q0 42 -43 62t-104 20v168h172v-82q89 0 155 -46.5t66 -121.5q0 -25 -7.5 -45.5t-25 -36.5t-35.5 -28.5t-49.5 -21.5t-56 -15t-65.5 -10t-68 -6.5t-74.5 -3.5t-73 -1h-73.5h-86v86z" />
<glyph unicode="&#xb9;" horiz-adv-x="839" d="M127 1298v54h29q194 0 305 78q36 0 42.5 -4.5t6.5 -30.5v-719h203v-51l-289 2l-285 -2v51h205v645q-97 -23 -188 -23h-29z" />
<glyph unicode="&#xba;" horiz-adv-x="964" d="M53 1094q0 146 113.5 241t316.5 95q199 0 313.5 -93.5t114.5 -242.5q0 -141 -113 -231.5t-317 -90.5q-198 0 -313 89.5t-115 232.5zM96 680q0 12 12.5 21.5t30.5 9.5h686q18 0 30.5 -9.5t12.5 -21.5t-12.5 -21.5t-30.5 -9.5h-686q-18 0 -30.5 9.5t-12.5 21.5zM260 1108 q0 -34 0.5 -53t5 -54t12 -55.5t24 -46.5t39.5 -40.5t59.5 -25t82.5 -10.5q36 0 66 6.5t51.5 15.5t38.5 26t27.5 31.5t18.5 38t11.5 40t5.5 43.5t2.5 42.5t0.5 41.5q0 47 -1 73t-9 62.5t-23 61.5q-61 77 -191 77q-59 0 -110 -21.5t-78 -62.5q-15 -24 -23 -59.5t-9 -60 t-1 -70.5z" />
<glyph unicode="&#xbb;" horiz-adv-x="1280" d="M256 29q46 238 158 454q-111 214 -158 455q0 13 7 21t18 8h18q15 0 23 -15q99 -262 309 -450q8 -8 8 -19q0 -10 -8 -18q-209 -187 -309 -449q-6 -16 -23 -16h-18q-11 0 -18 8t-7 21zM641 29q46 238 158 454q-111 214 -158 455q0 13 7 21t18 8h18q16 0 23 -15 q99 -262 309 -450q8 -8 8 -19q0 -10 -8 -18q-209 -187 -309 -449q-6 -16 -23 -16h-18q-11 0 -18 8t-7 21z" />
<glyph unicode="&#xbc;" horiz-adv-x="1966" d="M127 1298v54h29q194 0 305 78q36 0 42.5 -4.5t6.5 -30.5v-719h203v-51l-289 2l-285 -2v51h205v645q-97 -23 -188 -23h-29zM563 41q0 16 10 33l922 1323q17 24 47 24q25 0 41 -16t16 -41q0 -16 -10 -33l-921 -1323q-17 -24 -47 -24q-23 0 -40.5 17t-17.5 40zM1104 193v53 l508 545q12 13 19 15.5t28 2.5q27 0 33 -6.5t6 -30.5v-526h141v-53h-141v-140h141v-53l-235 2l-242 -2v53h162v140h-420zM1171 246h365v391z" />
<glyph unicode="&#xbd;" horiz-adv-x="1966" d="M127 1298v54h29q194 0 305 78q36 0 42.5 -4.5t6.5 -30.5v-719h203v-51l-289 2l-285 -2v51h205v645q-97 -23 -188 -23h-29zM465 41q0 16 10 33l922 1323q17 24 47 24q25 0 41 -16t16 -41q0 -16 -10 -33l-922 -1323q-17 -24 -47 -24q-23 0 -40 17t-17 40zM1178 0v20 q0 18 2 23t12 14l321 279q138 124 138 237q0 73 -52.5 127t-148.5 54q-101 0 -168 -62q39 -5 65.5 -25.5t26.5 -56.5q0 -40 -30 -62t-68 -22q-35 0 -66.5 20t-31.5 64q0 86 90.5 141.5t218.5 55.5q150 0 251 -64t101 -170q0 -29 -7 -54t-26 -49.5t-36 -42.5t-54.5 -44.5 t-62 -42.5t-76.5 -49l-213 -146h227q137 0 150 9q22 12 37 110h61l-41 -264h-620z" />
<glyph unicode="&#xbe;" horiz-adv-x="1966" d="M139 788q0 38 29.5 63.5t75.5 25.5q44 0 73 -24.5t29 -61.5q0 -31 -21 -55t-65 -31q80 -48 201 -48q33 0 58.5 8t41.5 19t28 29.5t17 33t8 36.5t3.5 32.5t0.5 28.5q0 19 -0.5 29.5t-3.5 32.5t-8.5 36.5t-17.5 32.5t-29 29t-43.5 18.5t-60.5 7.5h-72q-24 0 -31.5 3.5 t-7.5 17.5t10 18q12 4 54 4q49 2 77.5 10.5t55.5 36.5q51 55 51 144q0 17 -1 27.5t-7.5 30.5t-19.5 32t-39.5 22t-63.5 10q-109 0 -170 -51q47 -5 65.5 -28t18.5 -50q0 -39 -28.5 -59t-65.5 -20t-67 19t-30 60q0 75 81.5 124t205.5 49q147 0 229 -48.5t82 -121.5 q0 -71 -60.5 -125.5t-160.5 -79.5q81 -12 137.5 -38.5t82.5 -59t36 -59.5t10 -54q0 -99 -93.5 -167.5t-266.5 -68.5q-140 0 -234 49t-94 131zM563 41q0 16 10 33l922 1323q17 24 47 24q25 0 41 -16t16 -41q0 -16 -10 -33l-921 -1323q-17 -24 -47 -24q-23 0 -40.5 17 t-17.5 40zM1104 193v53l508 545q12 13 19 15.5t28 2.5q27 0 33 -6.5t6 -30.5v-526h141v-53h-141v-140h141v-53l-235 2l-242 -2v53h162v140h-420zM1171 246h365v391z" />
<glyph unicode="&#xbf;" horiz-adv-x="1087" d="M127 -143q0 128 100 202q240 167 240 412v55q0 20 0.5 27.5t5 15t13 9.5t24.5 2q41 0 43 -25v-66q0 -49 -2.5 -85t-14 -103.5t-42 -140t-78.5 -142.5q-27 -39 -35 -73t-8 -105q0 -33 0.5 -49.5t3 -40t8.5 -34.5t16 -24.5t25.5 -19.5t38.5 -10t53 -4q21 0 45 1.5t73 8 t96.5 24.5t80.5 46q-48 11 -72 44t-24 75q0 55 35 87.5t86 32.5q49 0 84.5 -31.5t35.5 -90.5q0 -127 -124 -196t-326 -69q-25 0 -45 0.5t-62 6t-74.5 15t-72 29t-65.5 47t-44 71t-18 98.5zM362 877q0 61 43 104t105 43t104.5 -43t42.5 -104q0 -62 -43 -105t-104 -43 q-62 0 -105 43.5t-43 104.5z" />
<glyph unicode="&#xc0;" horiz-adv-x="1740" d="M80 0v88h37q53 0 104 6q41 4 51 10.5t21 32.5l508 1249q8 22 13 30t18 13t38 5q35 0 46 -9t22 -39l526 -1298h195v-88q-51 4 -326 4q-276 0 -342 -4v88h193l-129 320h-549l-109 -267q-2 -4 -3 -7t-3 -9.5t-4 -13.5q57 -23 180 -23v-88q-47 4 -252 4q-182 0 -235 -4z M541 496h477l-238 589zM561 1716q-13 55 21 99.5t90 44.5q31 0 80 -35l276 -234l-43 -75l-334 114q-80 27 -90 86z" />
<glyph unicode="&#xc1;" horiz-adv-x="1740" d="M80 0v88h37q53 0 104 6q41 4 51 10.5t21 32.5l508 1249q8 22 13 30t18 13t38 5q35 0 46 -9t22 -39l526 -1298h195v-88q-51 4 -326 4q-276 0 -342 -4v88h193l-129 320h-549l-109 -267q-2 -4 -3 -7t-3 -9.5t-4 -13.5q57 -23 180 -23v-88q-47 4 -252 4q-182 0 -235 -4z M541 496h477l-238 589zM715 1591l276 234q42 35 78 35q57 0 91.5 -44.5t21.5 -99.5q-10 -59 -90 -86l-334 -114z" />
<glyph unicode="&#xc2;" horiz-adv-x="1740" d="M80 0v88h37q53 0 104 6q41 4 51 10.5t21 32.5l508 1249q8 22 13 30t18 13t38 5q35 0 46 -9t22 -39l526 -1298h195v-88q-51 4 -326 4q-276 0 -342 -4v88h193l-129 320h-549l-109 -267q-2 -4 -3 -7t-3 -9.5t-4 -13.5q57 -23 180 -23v-88q-47 4 -252 4q-182 0 -235 -4z M512 1544l358 289l359 -289l-33 -49l-328 119l-327 -119zM541 496h477l-238 589z" />
<glyph unicode="&#xc3;" horiz-adv-x="1740" d="M80 0v88h37q53 0 104 6q41 4 51 10.5t21 32.5l508 1249q8 22 13 30t18 13t38 5q35 0 46 -9t22 -39l526 -1298h195v-88q-51 4 -326 4q-276 0 -342 -4v88h193l-129 320h-549l-109 -267q-2 -4 -3 -7t-3 -9.5t-4 -13.5q57 -23 180 -23v-88q-47 4 -252 4q-182 0 -235 -4z M489 1540l107 117q49 55 137 55q56 0 141 -33q118 -43 173 -43q91 0 157 76l49 -45l-106 -117q-49 -55 -137 -55q-57 0 -142 33q-118 43 -172 43q-91 0 -157 -76zM541 496h477l-238 589z" />
<glyph unicode="&#xc4;" horiz-adv-x="1740" d="M80 0v88h37q53 0 104 6q41 4 51 10.5t21 32.5l508 1249q8 22 13 30t18 13t38 5q35 0 46 -9t22 -39l526 -1298h195v-88q-51 4 -326 4q-276 0 -342 -4v88h193l-129 320h-549l-109 -267q-2 -4 -3 -7t-3 -9.5t-4 -13.5q57 -23 180 -23v-88q-47 4 -252 4q-182 0 -235 -4z M449 1628q0 55 38.5 94t94.5 39q54 0 93.5 -38.5t39.5 -94.5q0 -54 -39.5 -93.5t-95.5 -39.5q-53 0 -92 38.5t-39 94.5zM541 496h477l-238 589zM1026 1628q0 55 38.5 94t94.5 39q54 0 93.5 -38.5t39.5 -94.5q0 -54 -39 -93.5t-96 -39.5q-53 0 -92 38.5t-39 94.5z" />
<glyph unicode="&#xc5;" horiz-adv-x="1740" d="M80 0v88h37q53 0 104 6q41 4 51 10.5t21 32.5l508 1249q8 22 13 30t18 13t38 5q35 0 46 -9t22 -39l526 -1298h195v-88q-51 4 -326 4q-276 0 -342 -4v88h193l-129 320h-549l-109 -267q-2 -4 -3 -7t-3 -9.5t-4 -13.5q57 -23 180 -23v-88q-47 4 -252 4q-182 0 -235 -4z M541 496h477l-238 589zM635 1608q0 70 59 120t174 50q119 0 178.5 -50.5t59.5 -123.5q0 -67 -58 -118.5t-180 -51.5q-112 0 -172.5 49.5t-60.5 124.5zM737 1606q0 -26 8.5 -44t20 -27.5t32 -14.5t35 -6t37.5 -1q31 0 51 2.5t41 11.5t31.5 28.5t10.5 50.5q0 26 -8.5 44 t-20.5 27.5t-32.5 14t-34.5 5.5t-38 1q-25 0 -41.5 -1t-35.5 -6.5t-30 -15t-18.5 -27t-7.5 -42.5z" />
<glyph unicode="&#xc6;" horiz-adv-x="2086" d="M80 0v88h39q55 0 106 6q41 6 50.5 12t19.5 33l487 1178h-161v88h1277l60 -485h-86q-6 51 -12 87.5t-16.5 77t-24 68.5t-34 56.5t-48.5 46.5t-64.5 33t-84.5 21.5t-107 6.5h-262v-598h137q59 0 99.5 11t64 28.5t36 49.5t16 65t3.5 85h86v-567h-86q0 43 -2.5 71.5t-10 58.5 t-22.5 48t-39 33.5t-60 22t-85 6.5h-137v-543h270q85 0 149.5 13t110 42.5t76.5 65.5t52 93.5t33.5 113t24.5 137.5h86l-88 -553h-1130v88h164v543h-367l-203 -492l-8 -24q0 -27 180 -27v-88q-47 4 -254 4q-182 0 -235 -4zM637 719h330v598h-82z" />
<glyph unicode="&#xc7;" horiz-adv-x="1665" d="M127 702q0 160 57.5 295t161.5 230.5t254.5 149t331.5 53.5q229 0 403 -148l154 148q32 0 38.5 -8.5t6.5 -45.5v-446q0 -38 -6.5 -45.5t-40.5 -7.5q-16 0 -23.5 0.5t-14.5 4.5t-9 13q-17 103 -57 184t-88 129t-106.5 79t-109.5 42.5t-102 11.5q-45 0 -92.5 -6t-110 -22.5 t-124 -54t-107.5 -91.5q-69 -83 -98 -195t-29 -270q0 -193 36 -298t101 -175q79 -89 195 -127.5t233 -38.5q58 0 117.5 13t121 45t109.5 78.5t81 119.5t38 162q1 11 8.5 16t14.5 6t20 1q26 0 34.5 -6t8.5 -31q0 -85 -38 -168t-105.5 -151t-169 -114t-220.5 -57v-51 q89 0 155.5 -46.5t66.5 -121.5q0 -25 -7.5 -45.5t-25 -36.5t-35.5 -28.5t-49.5 -21.5t-56 -15t-66 -10t-68.5 -6.5t-74.5 -3.5t-73 -1h-73.5h-86v86h43q49 0 75 0.5t71.5 2.5t71.5 7.5t54 14t41 23t13 34.5q0 42 -43 62t-105 20v140q-217 20 -376.5 117.5t-242.5 253.5 t-83 351z" />
<glyph unicode="&#xc8;" horiz-adv-x="1511" d="M78 0v88h217v1219h-217v88h1245l59 -486h-86q-10 85 -24.5 143.5t-43 110t-72.5 81t-111 46.5t-160 17h-320v-539h121q72 0 116.5 14.5t66 49t28 73t6.5 103.5h86v-568h-86q0 66 -6.5 104.5t-28 72.5t-66 48.5t-116.5 14.5h-121v-592h320q106 0 182.5 20t126 55t83 95.5 t51.5 128t32 166.5h86l-88 -553h-1280zM446 1716q-13 55 21 99.5t90 44.5q31 0 80 -35l276 -234l-43 -75l-333 114q-81 28 -91 86z" />
<glyph unicode="&#xc9;" horiz-adv-x="1511" d="M78 0v88h217v1219h-217v88h1245l59 -486h-86q-10 85 -24.5 143.5t-43 110t-72.5 81t-111 46.5t-160 17h-320v-539h121q72 0 116.5 14.5t66 49t28 73t6.5 103.5h86v-568h-86q0 66 -6.5 104.5t-28 72.5t-66 48.5t-116.5 14.5h-121v-592h320q106 0 182.5 20t126 55t83 95.5 t51.5 128t32 166.5h86l-88 -553h-1280zM600 1591l277 234q42 35 77 35q57 0 91.5 -44.5t21.5 -99.5q-10 -59 -90 -86l-334 -114z" />
<glyph unicode="&#xca;" horiz-adv-x="1511" d="M78 0v88h217v1219h-217v88h1245l59 -486h-86q-10 85 -24.5 143.5t-43 110t-72.5 81t-111 46.5t-160 17h-320v-539h121q72 0 116.5 14.5t66 49t28 73t6.5 103.5h86v-568h-86q0 66 -6.5 104.5t-28 72.5t-66 48.5t-116.5 14.5h-121v-592h320q106 0 182.5 20t126 55t83 95.5 t51.5 128t32 166.5h86l-88 -553h-1280zM397 1544l359 289l358 -289l-33 -49l-327 119l-328 -119z" />
<glyph unicode="&#xcb;" horiz-adv-x="1511" d="M78 0v88h217v1219h-217v88h1245l59 -486h-86q-10 85 -24.5 143.5t-43 110t-72.5 81t-111 46.5t-160 17h-320v-539h121q72 0 116.5 14.5t66 49t28 73t6.5 103.5h86v-568h-86q0 66 -6.5 104.5t-28 72.5t-66 48.5t-116.5 14.5h-121v-592h320q106 0 182.5 20t126 55t83 95.5 t51.5 128t32 166.5h86l-88 -553h-1280zM334 1628q0 55 38.5 94t94.5 39q54 0 93.5 -38.5t39.5 -94.5q0 -54 -39 -93.5t-96 -39.5q-53 0 -92 38.5t-39 94.5zM911 1628q0 55 38.5 94t94.5 39q54 0 94 -38.5t40 -94.5q0 -54 -39.5 -93.5t-96.5 -39.5q-53 0 -92 38.5t-39 94.5z " />
<glyph unicode="&#xcc;" horiz-adv-x="858" d="M63 0v88h230v1229h-230v88q74 -4 365 -4t365 4v-88h-230v-1229h230v-88q-74 4 -365 4t-365 -4zM119 1716q-13 55 20.5 99.5t89.5 44.5q31 0 80 -35l277 -234l-43 -75l-334 114q-80 27 -90 86z" />
<glyph unicode="&#xcd;" horiz-adv-x="858" d="M63 0v88h230v1229h-230v88q74 -4 365 -4t365 4v-88h-230v-1229h230v-88q-74 4 -365 4t-365 -4zM272 1591l277 234q42 35 78 35q57 0 91.5 -44t20.5 -100q-10 -59 -90 -86l-334 -114z" />
<glyph unicode="&#xce;" horiz-adv-x="858" d="M63 0v88h230v1229h-230v88q74 -4 365 -4t365 4v-88h-230v-1229h230v-88q-74 4 -365 4t-365 -4zM70 1544l358 289l358 -289l-32 -49l-328 119l-328 -119z" />
<glyph unicode="&#xcf;" horiz-adv-x="858" d="M6 1628q0 55 38.5 94t94.5 39q54 0 93.5 -38.5t39.5 -94.5q0 -54 -39 -93.5t-96 -39.5q-53 0 -92 38.5t-39 94.5zM63 0v88h230v1229h-230v88q74 -4 365 -4t365 4v-88h-230v-1229h230v-88q-74 4 -365 4t-365 -4zM584 1628q0 55 38.5 94t94.5 39q54 0 93.5 -38.5 t39.5 -94.5q0 -54 -39 -93.5t-96 -39.5q-53 0 -92 38.5t-39 94.5z" />
<glyph unicode="&#xd0;" horiz-adv-x="1765" d="M78 0v88h217v571h-217v86h217v572h-217v88h862q145 0 271 -47.5t221 -136t149.5 -225.5t54.5 -306q0 -213 -92.5 -371.5t-249 -238.5t-354.5 -80h-862zM555 88h307q133 0 235 44t158 118q56 75 79.5 171t23.5 271q0 184 -24 281t-74 168q-58 81 -162.5 128.5t-235.5 47.5 h-307v-572h328v-86h-328v-571z" />
<glyph unicode="&#xd1;" horiz-adv-x="1802" d="M78 0v88h47q59 0 115 6q39 6 47 14t8 42v1167h-217v88h452q30 0 39.5 -3.5t24.5 -21.5l815 -981v856q0 34 -8.5 42t-52.5 14q-49 6 -109 6h-47v88q47 -4 266 -4q217 0 264 4v-88h-47q-59 0 -114 -6q-40 -6 -48 -14t-8 -42v-1196q0 -38 -7 -48.5t-42 -10.5q-20 0 -26.5 4 t-24.5 23l-1014 1220v-1097q0 -34 9 -42t53 -14q49 -6 108 -6h47v-88q-47 4 -266 4q-217 0 -264 -4zM520 1540l107 117q49 55 137 55q56 0 141 -33q118 -43 172 -43q92 0 158 76l49 -45l-106 -117q-49 -55 -138 -55q-56 0 -141 33q-118 43 -172 43q-92 0 -158 -76z" />
<glyph unicode="&#xd2;" horiz-adv-x="1730" d="M127 696q0 216 88 381.5t256 259t393 93.5q224 0 392 -93t257 -259t89 -382q0 -215 -90 -378t-257.5 -253t-390.5 -90q-167 0 -305 52t-233 146t-147 228t-52 295zM416 725q0 -92 5.5 -163.5t31 -165t71.5 -163.5q58 -86 148 -133t192 -47q109 0 193.5 47.5t130.5 110.5 q72 99 98.5 222.5t26.5 291.5q0 157 -22.5 260t-78.5 191q-49 76 -140 128t-208 52q-101 0 -198 -47.5t-160 -147.5q-39 -64 -60.5 -149.5t-25.5 -146t-4 -140.5zM555 1716q-13 55 21 99.5t90 44.5q9 0 18 -2t15.5 -4.5t14.5 -7.5l12 -7.5t11 -7.5t8 -6l277 -234l-43 -75 l-334 114q-80 27 -90 86z" />
<glyph unicode="&#xd3;" horiz-adv-x="1730" d="M127 696q0 216 88 381.5t256 259t393 93.5q224 0 392 -93t257 -259t89 -382q0 -215 -90 -378t-257.5 -253t-390.5 -90q-167 0 -305 52t-233 146t-147 228t-52 295zM416 725q0 -92 5.5 -163.5t31 -165t71.5 -163.5q58 -86 148 -133t192 -47q109 0 193.5 47.5t130.5 110.5 q72 99 98.5 222.5t26.5 291.5q0 157 -22.5 260t-78.5 191q-49 76 -140 128t-208 52q-101 0 -198 -47.5t-160 -147.5q-39 -64 -60.5 -149.5t-25.5 -146t-4 -140.5zM709 1591l276 234q42 35 78 35q57 0 91.5 -44.5t21.5 -99.5q-10 -58 -91 -86l-333 -114z" />
<glyph unicode="&#xd4;" horiz-adv-x="1730" d="M127 696q0 216 88 381.5t256 259t393 93.5q224 0 392 -93t257 -259t89 -382q0 -215 -90 -378t-257.5 -253t-390.5 -90q-167 0 -305 52t-233 146t-147 228t-52 295zM416 725q0 -92 5.5 -163.5t31 -165t71.5 -163.5q58 -86 148 -133t192 -47q109 0 193.5 47.5t130.5 110.5 q72 99 98.5 222.5t26.5 291.5q0 157 -22.5 260t-78.5 191q-49 76 -140 128t-208 52q-101 0 -198 -47.5t-160 -147.5q-39 -64 -60.5 -149.5t-25.5 -146t-4 -140.5zM506 1544l358 289l359 -289l-33 -49l-328 119l-327 -119z" />
<glyph unicode="&#xd5;" horiz-adv-x="1730" d="M127 696q0 216 88 381.5t256 259t393 93.5q224 0 392 -93t257 -259t89 -382q0 -215 -90 -378t-257.5 -253t-390.5 -90q-167 0 -305 52t-233 146t-147 228t-52 295zM416 725q0 -92 5.5 -163.5t31 -165t71.5 -163.5q58 -86 148 -133t192 -47q109 0 193.5 47.5t130.5 110.5 q72 99 98.5 222.5t26.5 291.5q0 157 -22.5 260t-78.5 191q-49 76 -140 128t-208 52q-101 0 -198 -47.5t-160 -147.5q-39 -64 -60.5 -149.5t-25.5 -146t-4 -140.5zM483 1540l107 117q49 55 137 55q56 0 141 -33q118 -43 172 -43q92 0 158 76l49 -45l-106 -117 q-49 -55 -137 -55q-57 0 -142 33q-118 43 -172 43q-92 0 -158 -76z" />
<glyph unicode="&#xd6;" horiz-adv-x="1730" d="M127 696q0 216 88 381.5t256 259t393 93.5q224 0 392 -93t257 -259t89 -382q0 -215 -90 -378t-257.5 -253t-390.5 -90q-167 0 -305 52t-233 146t-147 228t-52 295zM416 725q0 -92 5.5 -163.5t31 -165t71.5 -163.5q58 -86 148 -133t192 -47q109 0 193.5 47.5t130.5 110.5 q72 99 98.5 222.5t26.5 291.5q0 157 -22.5 260t-78.5 191q-49 76 -140 128t-208 52q-101 0 -198 -47.5t-160 -147.5q-39 -64 -60.5 -149.5t-25.5 -146t-4 -140.5zM442 1628q0 55 38.5 94t94.5 39q54 0 94 -38.5t40 -94.5q0 -54 -39.5 -93.5t-96.5 -39.5q-53 0 -92 38.5 t-39 94.5zM1020 1628q0 55 38.5 94t94.5 39q54 0 93.5 -38.5t39.5 -94.5q0 -54 -39 -93.5t-96 -39.5q-53 0 -92 38.5t-39 94.5z" />
<glyph unicode="&#xd7;" horiz-adv-x="1792" d="M334.5 -4q-3.5 15 4.5 29.5t14 21.5t18 19l444 446l-444 446q-12 12 -18 19t-14 21.5t-4.5 29.5t17.5 29t28 17t29.5 -6t21.5 -13.5t20 -16.5l444 -446l444 444q59 59 101 17q41 -41 -21 -97l-444 -444l446 -446q11 -11 17.5 -19t14 -22t4.5 -29t-17 -29q-41 -39 -99 19 l-446 446l-444 -446q-11 -10 -14.5 -13t-17 -12t-22 -10t-21.5 2t-24 14q-14 14 -17.5 29z" />
<glyph unicode="&#xd8;" horiz-adv-x="1792" d="M127 696q0 159 52.5 293.5t149.5 232.5t242.5 153t323.5 55q217 0 403 -91l132 187l61 -41l-129 -185q146 -92 223.5 -252.5t77.5 -351.5q0 -157 -52.5 -289.5t-149.5 -228.5t-242.5 -149.5t-323.5 -53.5q-211 0 -406 88l-131 -184l-59 43l127 180q-153 98 -226 257.5 t-73 336.5zM397 696q0 -73 3 -126t13 -121t34 -126.5t61 -105.5l723 1026q-134 119 -336 119q-125 0 -235.5 -51t-174.5 -160q-30 -50 -49 -106.5t-27 -120.5t-10 -111.5t-2 -116.5zM559 162q129 -119 336 -119q40 0 81.5 6t99.5 22.5t115 56t99 97.5q36 50 59 111.5 t31.5 132.5t10.5 115t2 112q0 71 -3 122t-12.5 122t-33.5 133.5t-62 112.5z" />
<glyph unicode="&#xd9;" horiz-adv-x="1771" d="M78 1317v88q59 -4 352 -4t352 4v-88h-217v-860q0 -34 1.5 -60t9 -69.5t21 -76t41 -70t65 -61.5t96.5 -40.5t133 -16.5q94 0 173 23.5t141.5 72t98 129.5t35.5 187v780q0 34 -8.5 42t-52.5 14q-49 6 -109 6h-47v88q47 -4 264 -4q218 0 265 4v-88h-47q-59 0 -115 -6 q-39 -6 -47 -14t-8 -42v-786q0 -99 -33.5 -186.5t-99 -157t-173.5 -110t-245 -40.5q-150 0 -271 39.5t-198.5 107.5t-118.5 157.5t-41 191.5v846h-217zM629 1716q-13 55 20.5 99.5t89.5 44.5q31 0 80 -35l277 -234l-43 -75l-334 114q-80 27 -90 86z" />
<glyph unicode="&#xda;" horiz-adv-x="1771" d="M78 1317v88q59 -4 352 -4t352 4v-88h-217v-860q0 -34 1.5 -60t9 -69.5t21 -76t41 -70t65 -61.5t96.5 -40.5t133 -16.5q94 0 173 23.5t141.5 72t98 129.5t35.5 187v780q0 34 -8.5 42t-52.5 14q-49 6 -109 6h-47v88q47 -4 264 -4q218 0 265 4v-88h-47q-59 0 -115 -6 q-39 -6 -47 -14t-8 -42v-786q0 -99 -33.5 -186.5t-99 -157t-173.5 -110t-245 -40.5q-150 0 -271 39.5t-198.5 107.5t-118.5 157.5t-41 191.5v846h-217zM782 1591l277 234q42 35 78 35q57 0 91.5 -44t20.5 -100q-10 -59 -90 -86l-334 -114z" />
<glyph unicode="&#xdb;" horiz-adv-x="1771" d="M78 1317v88q59 -4 352 -4t352 4v-88h-217v-860q0 -34 1.5 -60t9 -69.5t21 -76t41 -70t65 -61.5t96.5 -40.5t133 -16.5q94 0 173 23.5t141.5 72t98 129.5t35.5 187v780q0 34 -8.5 42t-52.5 14q-49 6 -109 6h-47v88q47 -4 264 -4q218 0 265 4v-88h-47q-59 0 -115 -6 q-39 -6 -47 -14t-8 -42v-786q0 -99 -33.5 -186.5t-99 -157t-173.5 -110t-245 -40.5q-150 0 -271 39.5t-198.5 107.5t-118.5 157.5t-41 191.5v846h-217zM580 1544l358 289l358 -289l-32 -49l-328 119l-328 -119z" />
<glyph unicode="&#xdc;" horiz-adv-x="1771" d="M78 1317v88q59 -4 352 -4t352 4v-88h-217v-860q0 -34 1.5 -60t9 -69.5t21 -76t41 -70t65 -61.5t96.5 -40.5t133 -16.5q94 0 173 23.5t141.5 72t98 129.5t35.5 187v780q0 34 -8.5 42t-52.5 14q-49 6 -109 6h-47v88q47 -4 264 -4q218 0 265 4v-88h-47q-59 0 -115 -6 q-39 -6 -47 -14t-8 -42v-786q0 -99 -33.5 -186.5t-99 -157t-173.5 -110t-245 -40.5q-150 0 -271 39.5t-198.5 107.5t-118.5 157.5t-41 191.5v846h-217zM516 1628q0 55 38.5 94t94.5 39q54 0 93.5 -38.5t39.5 -94.5q0 -54 -39 -93.5t-96 -39.5q-53 0 -92 38.5t-39 94.5z M1094 1628q0 55 38.5 94t94.5 39q54 0 93.5 -38.5t39.5 -94.5q0 -54 -39 -93.5t-96 -39.5q-53 0 -92 38.5t-39 94.5z" />
<glyph unicode="&#xdd;" horiz-adv-x="1740" d="M33 1317v88q55 -4 332 -4q286 0 352 4v-88h-172l426 -631l393 584l14 24q-51 23 -155 23v88q47 -4 252 -4q174 0 231 4v-88h-39q-74 0 -114 -6.5t-50.5 -14t-21.5 -24.5l-482 -711v-473h220v-88q-66 4 -349 4q-289 0 -348 -4v88h217v473l-510 756h-196zM715 1591l276 234 q42 35 78 35q57 0 91.5 -44.5t21.5 -99.5q-10 -59 -90 -86l-334 -114z" />
<glyph unicode="&#xde;" horiz-adv-x="1447" d="M80 -2v90h217v1229h-217v90l344 -6l342 6v-90h-217v-166h264q93 0 170 -16t128 -42t90 -62t60.5 -71.5t34.5 -75.5t17 -69t4 -57q0 -39 -8.5 -78t-27.5 -85.5t-56.5 -85.5t-90 -72.5t-134 -52.5t-181.5 -19h-270v-277h217v-90l-344 6zM549 453h196q18 0 32 0.5t46.5 6.5 t58 17t56.5 33.5t51.5 54t34.5 82t14 113.5q0 140 -67 223q-29 37 -71 56t-66.5 21.5t-61.5 2.5h-223v-610z" />
<glyph unicode="&#xdf;" horiz-adv-x="1175" d="M72 0v88h141v733h-141v88h141v232q0 143 114 218t300 75q108 0 191.5 -24.5t132 -65.5t72.5 -89.5t24 -101.5q0 -34 -9.5 -68t-34 -75t-77 -79t-127.5 -63q150 -55 230.5 -191.5t80.5 -307.5q0 -94 -34.5 -168.5t-92.5 -120t-130.5 -69t-152.5 -23.5q-95 0 -151.5 51 t-56.5 119q0 29 11 49.5t27.5 30.5t31 14t26.5 4q39 0 67.5 -27t28.5 -69q0 -27 -13 -49t-27 -31l-13 -8q27 -17 63 -17q187 0 187 312q0 30 -0.5 53t-6 74t-15.5 90t-31 88t-49.5 82t-74.5 58t-104 30q-18 1 -22.5 1.5t-12 3.5t-9 9t-1.5 18q0 16 4.5 23.5t10.5 9t24 2.5 q68 4 114.5 26.5t69 59t31 74.5t8.5 86q0 21 -1 35t-5.5 42.5t-17 48.5t-32.5 41.5t-55 32.5t-81 11q-41 0 -73.5 -9.5t-53 -23.5t-35 -36t-21.5 -39.5t-11 -42.5t-4.5 -37.5t-0.5 -30.5v-1147q-35 4 -150 4q-157 0 -204 -4z" />
<glyph unicode="&#xe0;" horiz-adv-x="1120" d="M59 215q0 66 36.5 120t98.5 90t146.5 60.5t176.5 35.5t192 11v82q0 123 -58.5 184.5t-165.5 61.5q-87 0 -155 -18q49 -32 49 -99q0 -56 -36 -88t-85 -32q-47 0 -84 31t-37 91q0 183 357 183q212 0 325 -85.5t113 -230.5v-442q0 -23 2.5 -33.5t13.5 -23.5t38.5 -18.5 t74.5 -6.5q18 0 26 -1.5t14.5 -11.5t6.5 -30q0 -17 -2.5 -26t-11.5 -13.5t-17 -5t-28 -0.5h-105q-50 0 -87 6t-59 20t-35 26.5t-18.5 35.5t-6.5 36.5t-1 39.5q-34 -75 -111 -125.5t-188 -50.5q-38 0 -77 4t-83.5 13.5t-82 26.5t-69 41t-49.5 60.5t-18 81.5zM268 1319 q0 46 37 84.5t82 38.5q46 0 88 -49l232 -279l-56 -67l-309 172q-74 38 -74 100zM287 217q0 -69 54 -115.5t130 -46.5q23 0 50.5 5t61.5 20.5t61.5 39.5t46 67t18.5 98v192q-64 -3 -121.5 -12.5t-113.5 -29.5t-96.5 -48.5t-65.5 -72t-25 -97.5z" />
<glyph unicode="&#xe1;" horiz-adv-x="1120" d="M59 215q0 66 36.5 120t98.5 90t146.5 60.5t176.5 35.5t192 11v82q0 123 -58.5 184.5t-165.5 61.5q-87 0 -155 -18q49 -32 49 -99q0 -56 -36 -88t-85 -32q-47 0 -84 31t-37 91q0 183 357 183q212 0 325 -85.5t113 -230.5v-442q0 -23 2.5 -33.5t13.5 -23.5t38.5 -18.5 t74.5 -6.5q18 0 26 -1.5t14.5 -11.5t6.5 -30q0 -17 -2.5 -26t-11.5 -13.5t-17 -5t-28 -0.5h-105q-50 0 -87 6t-59 20t-35 26.5t-18.5 35.5t-6.5 36.5t-1 39.5q-34 -75 -111 -125.5t-188 -50.5q-38 0 -77 4t-83.5 13.5t-82 26.5t-69 41t-49.5 60.5t-18 81.5zM287 217 q0 -69 54 -115.5t130 -46.5q23 0 50.5 5t61.5 20.5t61.5 39.5t46 67t18.5 98v192q-64 -3 -121.5 -12.5t-113.5 -29.5t-96.5 -48.5t-65.5 -72t-25 -97.5zM414 1114l231 279q42 49 88 49q45 0 82 -38.5t37 -84.5q0 -62 -74 -100l-309 -172z" />
<glyph unicode="&#xe2;" horiz-adv-x="1120" d="M59 215q0 66 36.5 120t98.5 90t146.5 60.5t176.5 35.5t192 11v82q0 123 -58.5 184.5t-165.5 61.5q-87 0 -155 -18q49 -32 49 -99q0 -56 -36 -88t-85 -32q-47 0 -84 31t-37 91q0 183 357 183q212 0 325 -85.5t113 -230.5v-442q0 -23 2.5 -33.5t13.5 -23.5t38.5 -18.5 t74.5 -6.5q18 0 26 -1.5t14.5 -11.5t6.5 -30q0 -17 -2.5 -26t-11.5 -13.5t-17 -5t-28 -0.5h-105q-50 0 -87 6t-59 20t-35 26.5t-18.5 35.5t-6.5 36.5t-1 39.5q-34 -75 -111 -125.5t-188 -50.5q-38 0 -77 4t-83.5 13.5t-82 26.5t-69 41t-49.5 60.5t-18 81.5zM197 1077 l362 379l363 -379l-41 -45l-324 203l-324 -203zM287 217q0 -69 54 -115.5t130 -46.5q23 0 50.5 5t61.5 20.5t61.5 39.5t46 67t18.5 98v192q-64 -3 -121.5 -12.5t-113.5 -29.5t-96.5 -48.5t-65.5 -72t-25 -97.5z" />
<glyph unicode="&#xe3;" horiz-adv-x="1120" d="M59 215q0 66 36.5 120t98.5 90t146.5 60.5t176.5 35.5t192 11v82q0 123 -58.5 184.5t-165.5 61.5q-87 0 -155 -18q49 -32 49 -99q0 -56 -36 -88t-85 -32q-47 0 -84 31t-37 91q0 183 357 183q212 0 325 -85.5t113 -230.5v-442q0 -23 2.5 -33.5t13.5 -23.5t38.5 -18.5 t74.5 -6.5q18 0 26 -1.5t14.5 -11.5t6.5 -30q0 -17 -2.5 -26t-11.5 -13.5t-17 -5t-28 -0.5h-105q-50 0 -87 6t-59 20t-35 26.5t-18.5 35.5t-6.5 36.5t-1 39.5q-34 -75 -111 -125.5t-188 -50.5q-38 0 -77 4t-83.5 13.5t-82 26.5t-69 41t-49.5 60.5t-18 81.5zM178 1182 l107 116q50 56 137 56q56 0 141 -33q118 -43 172 -43q92 0 158 76l49 -45l-106 -117q-49 -55 -138 -55q-58 0 -141 32q-118 43 -172 43q-93 0 -158 -75zM287 217q0 -69 54 -115.5t130 -46.5q23 0 50.5 5t61.5 20.5t61.5 39.5t46 67t18.5 98v192q-64 -3 -121.5 -12.5 t-113.5 -29.5t-96.5 -48.5t-65.5 -72t-25 -97.5z" />
<glyph unicode="&#xe4;" horiz-adv-x="1120" d="M59 215q0 66 36.5 120t98.5 90t146.5 60.5t176.5 35.5t192 11v82q0 123 -58.5 184.5t-165.5 61.5q-87 0 -155 -18q49 -32 49 -99q0 -56 -36 -88t-85 -32q-47 0 -84 31t-37 91q0 183 357 183q212 0 325 -85.5t113 -230.5v-442q0 -23 2.5 -33.5t13.5 -23.5t38.5 -18.5 t74.5 -6.5q18 0 26 -1.5t14.5 -11.5t6.5 -30q0 -17 -2.5 -26t-11.5 -13.5t-17 -5t-28 -0.5h-105q-50 0 -87 6t-59 20t-35 26.5t-18.5 35.5t-6.5 36.5t-1 39.5q-34 -75 -111 -125.5t-188 -50.5q-38 0 -77 4t-83.5 13.5t-82 26.5t-69 41t-49.5 60.5t-18 81.5zM182 1245 q0 55 38.5 94t94.5 39q54 0 94 -38.5t40 -94.5q0 -54 -39.5 -93.5t-96.5 -39.5q-53 0 -92 38.5t-39 94.5zM287 217q0 -69 54 -115.5t130 -46.5q23 0 50.5 5t61.5 20.5t61.5 39.5t46 67t18.5 98v192q-64 -3 -121.5 -12.5t-113.5 -29.5t-96.5 -48.5t-65.5 -72t-25 -97.5z M670 1245q0 55 38.5 94t94.5 39q54 0 93.5 -38.5t39.5 -94.5q0 -55 -39 -94t-96 -39q-53 0 -92 38.5t-39 94.5z" />
<glyph unicode="&#xe5;" horiz-adv-x="1120" d="M59 215q0 66 36.5 120t98.5 90t146.5 60.5t176.5 35.5t192 11v82q0 123 -58.5 184.5t-165.5 61.5q-87 0 -155 -18q49 -32 49 -99q0 -56 -36 -88t-85 -32q-47 0 -84 31t-37 91q0 183 357 183q212 0 325 -85.5t113 -230.5v-442q0 -23 2.5 -33.5t13.5 -23.5t38.5 -18.5 t74.5 -6.5q18 0 26 -1.5t14.5 -11.5t6.5 -30q0 -17 -2.5 -26t-11.5 -13.5t-17 -5t-28 -0.5h-105q-50 0 -87 6t-59 20t-35 26.5t-18.5 35.5t-6.5 36.5t-1 39.5q-34 -75 -111 -125.5t-188 -50.5q-38 0 -77 4t-83.5 13.5t-82 26.5t-69 41t-49.5 60.5t-18 81.5zM287 217 q0 -69 54 -115.5t130 -46.5q23 0 50.5 5t61.5 20.5t61.5 39.5t46 67t18.5 98v192q-64 -3 -121.5 -12.5t-113.5 -29.5t-96.5 -48.5t-65.5 -72t-25 -97.5zM326 1245q0 70 59 120t174 50q119 0 178.5 -50.5t59.5 -123.5q0 -67 -58 -118.5t-180 -51.5q-112 0 -172.5 49.5 t-60.5 124.5zM428 1243q0 -26 8.5 -44t20 -27.5t32 -14t34.5 -5.5t38 -1q25 0 41.5 1t35.5 6.5t30 15t18.5 27t7.5 42.5q0 26 -8.5 44t-20 27.5t-32 14t-34.5 5.5t-38 1q-25 0 -41.5 -1t-35.5 -6.5t-30 -15t-18.5 -27t-7.5 -42.5z" />
<glyph unicode="&#xe6;" horiz-adv-x="1665" d="M78 205q0 57 29.5 104t72.5 77t108.5 53t120 34.5t125.5 19.5t106 10t79 3v108q0 123 -57 184.5t-166 61.5q-88 0 -156 -18q49 -32 49 -99q0 -56 -36 -88t-85 -32q-47 0 -84 31t-37 91q0 183 357 183q239 0 360 -115q132 115 336 115q90 0 160.5 -25t114 -66t72 -97.5 t39.5 -114t11 -121.5q0 -36 -10.5 -43.5t-48.5 -7.5h-596q0 -28 1 -50t7 -65.5t17 -76.5t34 -72.5t54.5 -65.5t81.5 -44t112 -18q78 0 152 43t108 132q6 21 13.5 27.5t31.5 6.5q43 0 43 -30q0 -14 -11 -41t-39 -64t-68 -69.5t-106.5 -55t-145.5 -22.5q-231 0 -375 135 q-63 -72 -172.5 -103.5t-226.5 -31.5q-108 0 -190.5 22t-133.5 72t-51 123zM305 207q0 -62 50.5 -107t127.5 -45q115 0 195 61.5t80 139.5q0 9 -6 25q-30 72 -33 163q-27 -2 -45.5 -3t-65.5 -8t-81.5 -16t-79 -27.5t-73 -42t-49 -60t-20.5 -80.5zM942 512h467 q-1 32 -2.5 52.5t-7 60.5t-13.5 67.5t-24 62t-37 55.5t-53.5 35.5t-73.5 14.5q-51 0 -107 -24t-94 -82q-48 -76 -55 -242z" />
<glyph unicode="&#xe7;" horiz-adv-x="1024" d="M78 455q0 92 29 174t87.5 150.5t159 108.5t232.5 40q346 0 346 -180q0 -64 -39 -93.5t-82 -29.5q-45 0 -83 30.5t-38 89.5q0 56 33 89l6 6q0 6 -54 10t-81 4q-43 0 -79.5 -10t-62.5 -25t-47 -39.5t-34 -47.5t-22.5 -55.5t-14 -56.5t-7 -57.5t-3 -51.5t-0.5 -46 q0 -404 288 -404q53 0 97.5 15.5t70.5 35t47 48t29 44.5t14 34q7 19 13.5 22.5t31.5 3.5q11 0 15.5 -0.5t12.5 -2t11.5 -7t3.5 -14.5q0 -7 -7 -27.5t-28.5 -55t-53.5 -66.5t-90 -60.5t-130 -38.5v-66q89 0 155 -46.5t66 -121.5q0 -25 -7.5 -45.5t-25 -36.5t-35.5 -28.5 t-49.5 -21.5t-56 -15t-65.5 -10t-68 -6.5t-74.5 -3.5t-73 -1h-73.5h-86v86h43q49 0 75 0.5t71.5 2.5t71.5 7.5t54 14t41 23t13 34.5q0 42 -43 62t-105 20v154q-185 28 -292 151.5t-107 309.5z" />
<glyph unicode="&#xe8;" horiz-adv-x="1050" d="M63 461q0 131 56 235.5t169.5 168t268.5 63.5q207 0 320 -113q61 -63 84.5 -151.5t23.5 -159.5q0 -36 -10.5 -43.5t-48.5 -7.5h-617q0 -35 1 -58.5t6.5 -68.5t16.5 -76.5t33 -69.5t52.5 -62t79.5 -40.5t110 -16.5q39 0 79 9.5t80.5 29t74.5 55t53 83.5q10 22 16.5 27 t30.5 5q43 0 43 -30q0 -13 -11.5 -39.5t-41.5 -64t-73 -70t-115.5 -55.5t-159.5 -23q-233 0 -377 129.5t-144 343.5zM233 1319q0 46 37 84.5t82 38.5q46 0 88 -49l232 -279l-56 -67l-309 172q-74 38 -74 100zM309 512h488q-1 27 -2.5 51.5t-7.5 61.5t-16 67t-28.5 62.5 t-42.5 54.5t-61 36.5t-82 14.5q-65 0 -117 -29.5t-82 -80.5q-20 -34 -31 -79.5t-13 -72t-5 -86.5z" />
<glyph unicode="&#xe9;" horiz-adv-x="1050" d="M63 461q0 131 56 235.5t169.5 168t268.5 63.5q207 0 320 -113q61 -63 84.5 -151.5t23.5 -159.5q0 -36 -10.5 -43.5t-48.5 -7.5h-617q0 -35 1 -58.5t6.5 -68.5t16.5 -76.5t33 -69.5t52.5 -62t79.5 -40.5t110 -16.5q39 0 79 9.5t80.5 29t74.5 55t53 83.5q10 22 16.5 27 t30.5 5q43 0 43 -30q0 -13 -11.5 -39.5t-41.5 -64t-73 -70t-115.5 -55.5t-159.5 -23q-233 0 -377 129.5t-144 343.5zM309 512h488q-1 27 -2.5 51.5t-7.5 61.5t-16 67t-28.5 62.5t-42.5 54.5t-61 36.5t-82 14.5q-65 0 -117 -29.5t-82 -80.5q-20 -34 -31 -79.5t-13 -72 t-5 -86.5zM379 1114l231 279q42 49 88 49q45 0 82 -38.5t37 -84.5q0 -62 -74 -100l-309 -172z" />
<glyph unicode="&#xea;" horiz-adv-x="1050" d="M63 461q0 131 56 235.5t169.5 168t268.5 63.5q207 0 320 -113q61 -63 84.5 -151.5t23.5 -159.5q0 -36 -10.5 -43.5t-48.5 -7.5h-617q0 -35 1 -58.5t6.5 -68.5t16.5 -76.5t33 -69.5t52.5 -62t79.5 -40.5t110 -16.5q39 0 79 9.5t80.5 29t74.5 55t53 83.5q10 22 16.5 27 t30.5 5q43 0 43 -30q0 -13 -11.5 -39.5t-41.5 -64t-73 -70t-115.5 -55.5t-159.5 -23q-233 0 -377 129.5t-144 343.5zM162 1077l362 379l363 -379l-41 -45l-324 203l-323 -203zM309 512h488q-1 27 -2.5 51.5t-7.5 61.5t-16 67t-28.5 62.5t-42.5 54.5t-61 36.5t-82 14.5 q-65 0 -117 -29.5t-82 -80.5q-20 -34 -31 -79.5t-13 -72t-5 -86.5z" />
<glyph unicode="&#xeb;" horiz-adv-x="1050" d="M63 461q0 131 56 235.5t169.5 168t268.5 63.5q207 0 320 -113q61 -63 84.5 -151.5t23.5 -159.5q0 -36 -10.5 -43.5t-48.5 -7.5h-617q0 -35 1 -58.5t6.5 -68.5t16.5 -76.5t33 -69.5t52.5 -62t79.5 -40.5t110 -16.5q39 0 79 9.5t80.5 29t74.5 55t53 83.5q10 22 16.5 27 t30.5 5q43 0 43 -30q0 -13 -11.5 -39.5t-41.5 -64t-73 -70t-115.5 -55.5t-159.5 -23q-233 0 -377 129.5t-144 343.5zM147 1245q0 55 39 94t95 39q54 0 93.5 -38.5t39.5 -94.5q0 -55 -39 -94t-96 -39q-53 0 -92.5 38.5t-39.5 94.5zM309 512h488q-1 27 -2.5 51.5t-7.5 61.5 t-16 67t-28.5 62.5t-42.5 54.5t-61 36.5t-82 14.5q-65 0 -117 -29.5t-82 -80.5q-20 -34 -31 -79.5t-13 -72t-5 -86.5zM635 1245q0 55 38.5 94t94.5 39q54 0 93.5 -38.5t39.5 -94.5q0 -55 -39.5 -94t-95.5 -39q-53 0 -92 38.5t-39 94.5z" />
<glyph unicode="&#xec;" horiz-adv-x="641" d="M29 1319q0 46 36.5 84.5t81.5 38.5q47 0 89 -49l231 -279l-55 -67l-310 172q-73 38 -73 100zM90 0v88h141v649q0 58 -20.5 69t-114.5 11v88l348 17v-834h127v-88q-49 4 -237 4q-197 0 -244 -4z" />
<glyph unicode="&#xed;" horiz-adv-x="641" d="M90 0v88h141v649q0 58 -20.5 69t-114.5 11v88l348 17v-834h127v-88q-49 4 -237 4q-197 0 -244 -4zM174 1114l232 279q42 49 88 49q45 0 81.5 -38.5t36.5 -84.5q0 -62 -73 -100l-310 -172z" />
<glyph unicode="&#xee;" horiz-adv-x="641" d="M-43 1077l362 379l363 -379l-41 -45l-324 203l-323 -203zM90 0v88h141v649q0 58 -20.5 69t-114.5 11v88l348 17v-834h127v-88q-49 4 -237 4q-197 0 -244 -4z" />
<glyph unicode="&#xef;" horiz-adv-x="641" d="M-57 1245q0 55 38.5 94t94.5 39q54 0 93.5 -38.5t39.5 -94.5q0 -55 -39.5 -94t-95.5 -39q-53 0 -92 38.5t-39 94.5zM90 0v88h141v649q0 58 -20.5 69t-114.5 11v88l348 17v-834h127v-88q-49 4 -237 4q-197 0 -244 -4zM430 1245q0 55 38.5 94t94.5 39q54 0 93.5 -38.5 t39.5 -94.5q0 -55 -39 -94t-96 -39q-53 0 -92 38.5t-39 94.5z" />
<glyph unicode="&#xf0;" d="M63 449q0 144 66 254t180 167.5t258 57.5q129 0 221 -86q-78 219 -253 356l-218 -96l-34 82l166 73q-130 76 -263 99l23 74q207 -9 399 -101l228 101l34 -82l-168 -74q180 -117 285 -301q46 -84 69 -172.5t26 -139.5t3 -137q0 -45 -0.5 -68.5t-4 -65.5t-12 -71t-22.5 -66 t-38 -70t-56 -64q-138 -131 -379 -131q-237 0 -373.5 129.5t-136.5 331.5zM311 469q0 -102 7.5 -164t33.5 -115q33 -65 93 -97t130 -32q63 0 123 29t95 92q45 87 45 260q0 25 -0.5 45.5t-6 66.5t-14.5 82t-29 80t-47.5 73.5t-71 50t-98.5 20.5q-141 0 -213 -112 q-22 -35 -33 -88.5t-12.5 -90t-1.5 -100.5z" />
<glyph unicode="&#xf1;" horiz-adv-x="1280" d="M86 0v88h141v649q0 58 -21 69t-120 11v88l346 17v-226h2q51 113 140.5 169.5t203.5 56.5q165 0 237 -72.5t72 -222.5v-539h142v-88q-47 4 -254 4q-205 0 -252 -4v88h141v561q0 112 -29.5 158.5t-89.5 46.5q-51 0 -101.5 -21t-94 -60.5t-71 -104.5t-27.5 -144v-436h141 v-88q-47 4 -254 4q-205 0 -252 -4zM258 1182l107 116q50 56 137 56q56 0 141 -33q118 -43 172 -43q92 0 158 76l49 -45l-107 -117q-49 -55 -137 -55q-58 0 -141 32q-118 43 -172 43q-93 0 -158 -75z" />
<glyph unicode="&#xf2;" d="M63 449q0 101 33.5 187.5t96.5 151.5t161.5 102.5t220.5 37.5q237 0 373.5 -133.5t136.5 -345.5q0 -201 -135 -331t-377 -130q-237 0 -373.5 128t-136.5 333zM285 1319q0 46 36.5 84.5t81.5 38.5q47 0 89 -49l231 -279l-55 -67l-310 172q-73 38 -73 100zM309 469 q0 -38 0.5 -59t2.5 -60t6.5 -62t14 -57.5t22.5 -55.5t33 -45t46 -37.5t62 -22.5t79 -9q64 0 111.5 17t75 52.5t44.5 69t24 89.5t8.5 89t1.5 91q0 66 -1.5 103t-11 89.5t-28.5 86.5q-29 48 -86.5 80t-139.5 32q-70 0 -131.5 -30t-93.5 -89q-18 -34 -27 -85t-10.5 -86.5 t-1.5 -100.5z" />
<glyph unicode="&#xf3;" d="M63 449q0 101 33.5 187.5t96.5 151.5t161.5 102.5t220.5 37.5q237 0 373.5 -133.5t136.5 -345.5q0 -201 -135 -331t-377 -130q-237 0 -373.5 128t-136.5 333zM309 469q0 -38 0.5 -59t2.5 -60t6.5 -62t14 -57.5t22.5 -55.5t33 -45t46 -37.5t62 -22.5t79 -9q64 0 111.5 17 t75 52.5t44.5 69t24 89.5t8.5 89t1.5 91q0 66 -1.5 103t-11 89.5t-28.5 86.5q-29 48 -86.5 80t-139.5 32q-70 0 -131.5 -30t-93.5 -89q-18 -34 -27 -85t-10.5 -86.5t-1.5 -100.5zM430 1114l232 279q42 49 88 49q45 0 81.5 -38.5t36.5 -84.5q0 -62 -73 -100l-310 -172z" />
<glyph unicode="&#xf4;" d="M63 449q0 101 33.5 187.5t96.5 151.5t161.5 102.5t220.5 37.5q237 0 373.5 -133.5t136.5 -345.5q0 -201 -135 -331t-377 -130q-237 0 -373.5 128t-136.5 333zM213 1077l362 379l363 -379l-41 -45l-324 203l-323 -203zM309 469q0 -38 0.5 -59t2.5 -60t6.5 -62t14 -57.5 t22.5 -55.5t33 -45t46 -37.5t62 -22.5t79 -9q64 0 111.5 17t75 52.5t44.5 69t24 89.5t8.5 89t1.5 91q0 66 -1.5 103t-11 89.5t-28.5 86.5q-29 48 -86.5 80t-139.5 32q-70 0 -131.5 -30t-93.5 -89q-18 -34 -27 -85t-10.5 -86.5t-1.5 -100.5z" />
<glyph unicode="&#xf5;" d="M63 449q0 101 33.5 187.5t96.5 151.5t161.5 102.5t220.5 37.5q237 0 373.5 -133.5t136.5 -345.5q0 -201 -135 -331t-377 -130q-237 0 -373.5 128t-136.5 333zM195 1182l106 116q50 56 137 56q57 0 142 -33q118 -43 172 -43q91 0 157 76l49 -45l-106 -117 q-49 -55 -137 -55q-59 0 -142 32q-118 43 -172 43q-92 0 -157 -75zM309 469q0 -38 0.5 -59t2.5 -60t6.5 -62t14 -57.5t22.5 -55.5t33 -45t46 -37.5t62 -22.5t79 -9q64 0 111.5 17t75 52.5t44.5 69t24 89.5t8.5 89t1.5 91q0 66 -1.5 103t-11 89.5t-28.5 86.5q-29 48 -86.5 80 t-139.5 32q-70 0 -131.5 -30t-93.5 -89q-18 -34 -27 -85t-10.5 -86.5t-1.5 -100.5z" />
<glyph unicode="&#xf6;" d="M63 449q0 101 33.5 187.5t96.5 151.5t161.5 102.5t220.5 37.5q237 0 373.5 -133.5t136.5 -345.5q0 -201 -135 -331t-377 -130q-237 0 -373.5 128t-136.5 333zM199 1245q0 55 38.5 94t94.5 39q54 0 93.5 -38.5t39.5 -94.5q0 -55 -39.5 -94t-95.5 -39q-53 0 -92 38.5 t-39 94.5zM309 469q0 -38 0.5 -59t2.5 -60t6.5 -62t14 -57.5t22.5 -55.5t33 -45t46 -37.5t62 -22.5t79 -9q64 0 111.5 17t75 52.5t44.5 69t24 89.5t8.5 89t1.5 91q0 66 -1.5 103t-11 89.5t-28.5 86.5q-29 48 -86.5 80t-139.5 32q-70 0 -131.5 -30t-93.5 -89q-18 -34 -27 -85 t-10.5 -86.5t-1.5 -100.5zM686 1245q0 55 38.5 94t94.5 39q54 0 93.5 -38.5t39.5 -94.5q0 -55 -39 -94t-96 -39q-53 0 -92 38.5t-39 94.5z" />
<glyph unicode="&#xf7;" horiz-adv-x="1792" d="M127 514q0 55 82 55h1372q82 0 82 -55q0 -20 -8 -32.5t-23.5 -17.5t-25.5 -6t-27 -1h-1368q-17 0 -27 1t-25.5 6t-23.5 17.5t-8 32.5zM748 41q0 62 43 104.5t104 42.5t104 -42.5t43 -104.5t-43 -104.5t-104 -42.5t-104 42.5t-43 104.5zM748 987q0 62 43 105t104 43 t104 -43t43 -105t-43 -104.5t-104 -42.5t-104 42.5t-43 104.5z" />
<glyph unicode="&#xf8;" d="M63 449q0 101 33.5 187.5t96.5 151.5t161.5 102.5t220.5 37.5q121 0 226 -39l143 239l60 -36l-144 -234q57 -32 100 -77t66 -87.5t37 -91.5t18 -83.5t4 -69.5q0 -201 -135 -331t-377 -130q-122 0 -223 37l-147 -242l-56 37l142 233q-115 61 -170.5 167t-55.5 229z M287 451q0 -77 2 -116t16 -91.5t43 -91.5l402 657q-74 51 -175 51q-77 0 -139 -30t-94 -82q-26 -39 -38.5 -95t-14.5 -94.5t-2 -107.5zM399 102q78 -47 174 -47q83 0 141 29t86 64.5t43 99.5t17 101.5t2 101.5q0 70 -2 110t-16.5 99.5t-42.5 99.5l-402 -656v-2z" />
<glyph unicode="&#xf9;" horiz-adv-x="1280" d="M86 817v88l365 17v-703q0 -50 3.5 -74.5t19 -48.5t48.5 -32.5t90 -8.5q117 0 184.5 80t67.5 201v401q0 58 -21 69t-120 11v88l364 17v-754q0 -58 21.5 -69t120.5 -11v-88l-355 -12v166h-2q-88 -166 -288 -166q-176 0 -266.5 59t-90.5 205v485q0 58 -21 69t-120 11z M348 1319q0 46 37 84.5t82 38.5q46 0 88 -49l231 -279l-55 -67l-309 172q-74 38 -74 100z" />
<glyph unicode="&#xfa;" horiz-adv-x="1280" d="M86 817v88l365 17v-703q0 -50 3.5 -74.5t19 -48.5t48.5 -32.5t90 -8.5q117 0 184.5 80t67.5 201v401q0 58 -21 69t-120 11v88l364 17v-754q0 -58 21.5 -69t120.5 -11v-88l-355 -12v166h-2q-88 -166 -288 -166q-176 0 -266.5 59t-90.5 205v485q0 58 -21 69t-120 11z M494 1114l231 279q42 49 88 49q45 0 82 -38.5t37 -84.5q0 -62 -74 -100l-309 -172z" />
<glyph unicode="&#xfb;" horiz-adv-x="1280" d="M86 817v88l365 17v-703q0 -50 3.5 -74.5t19 -48.5t48.5 -32.5t90 -8.5q117 0 184.5 80t67.5 201v401q0 58 -21 69t-120 11v88l364 17v-754q0 -58 21.5 -69t120.5 -11v-88l-355 -12v166h-2q-88 -166 -288 -166q-176 0 -266.5 59t-90.5 205v485q0 58 -21 69t-120 11z M276 1077l363 379l362 -379l-40 -45l-324 203l-324 -203z" />
<glyph unicode="&#xfc;" horiz-adv-x="1280" d="M86 817v88l365 17v-703q0 -50 3.5 -74.5t19 -48.5t48.5 -32.5t90 -8.5q117 0 184.5 80t67.5 201v401q0 58 -21 69t-120 11v88l364 17v-754q0 -58 21.5 -69t120.5 -11v-88l-355 -12v166h-2q-88 -166 -288 -166q-176 0 -266.5 59t-90.5 205v485q0 58 -21 69t-120 11z M262 1245q0 55 38.5 94t94.5 39q54 0 93.5 -38.5t39.5 -94.5q0 -55 -39 -94t-96 -39q-53 0 -92 38.5t-39 94.5zM750 1245q0 55 38.5 94t94.5 39q54 0 93.5 -38.5t39.5 -94.5q0 -55 -39 -94t-96 -39q-53 0 -92 38.5t-39 94.5z" />
<glyph unicode="&#xfd;" horiz-adv-x="1216" d="M45 -227q0 51 32 81.5t81 30.5q47 0 78.5 -30t31.5 -80q0 -73 -65 -105q23 -12 55 -12q41 0 77.5 16.5t60 37.5t48.5 58.5t36.5 59.5t29.5 61q5 12 24.5 54.5t24.5 54.5l-379 821h-131v88q53 -4 234 -4q196 0 245 4v-88h-112l262 -567l240 516q8 24 8 25q0 12 -25 18.5 t-49 6.5l-25 1v88l177 -4q91 0 161 4v-88q-63 0 -95 -6t-40.5 -13.5t-15.5 -25.5l-436 -944q-17 -38 -44.5 -76.5t-67 -77.5t-94.5 -63.5t-114 -24.5q-90 0 -151.5 54.5t-61.5 128.5zM463 1114l231 279q42 49 88 49q45 0 82 -38.5t37 -84.5q0 -62 -74 -100l-309 -172z" />
<glyph unicode="&#xfe;" horiz-adv-x="1280" d="M72 -309h141v1546q0 58 -21 69t-120 11v88l354 16v-606q133 107 307 107q208 0 337.5 -127t129.5 -338q0 -146 -67 -253.5t-179 -161.5t-254 -54q-155 0 -264 96v-393h142v-88q-47 4 -254 4q-205 0 -252 -4v88zM436 197q46 -70 109 -106t131 -36q41 0 79.5 13t75 43.5 t63.5 75.5t43.5 114.5t16.5 155.5q0 191 -73 291t-181 100q-68 0 -139.5 -31.5t-124.5 -99.5v-520z" />
<glyph unicode="&#xff;" horiz-adv-x="1216" d="M45 -227q0 51 32 81.5t81 30.5q47 0 78.5 -30t31.5 -80q0 -73 -65 -105q23 -12 55 -12q41 0 77.5 16.5t60 37.5t48.5 58.5t36.5 59.5t29.5 61q5 12 24.5 54.5t24.5 54.5l-379 821h-131v88q53 -4 234 -4q196 0 245 4v-88h-112l262 -567l240 516q8 24 8 25q0 12 -25 18.5 t-49 6.5l-25 1v88l177 -4q91 0 161 4v-88q-63 0 -95 -6t-40.5 -13.5t-15.5 -25.5l-436 -944q-17 -38 -44.5 -76.5t-67 -77.5t-94.5 -63.5t-114 -24.5q-90 0 -151.5 54.5t-61.5 128.5zM231 1245q0 55 39 94t95 39q54 0 93.5 -38.5t39.5 -94.5q0 -54 -39.5 -93.5t-96.5 -39.5 q-53 0 -92 38.5t-39 94.5zM719 1245q0 55 38.5 94t94.5 39q54 0 93.5 -38.5t39.5 -94.5q0 -55 -39.5 -94t-95.5 -39q-53 0 -92 38.5t-39 94.5z" />
<glyph unicode="&#x152;" horiz-adv-x="2342" d="M166 696q0 159 52.5 293.5t149.5 232.5t242.5 153t323.5 55q79 0 207 -15q88 -10 157 -10h856l60 -485h-86q-7 59 -14.5 99.5t-21 85.5t-32.5 74.5t-48.5 57.5t-68.5 44.5t-93.5 26t-123.5 9.5h-303v-543h193q142 0 195 50.5t53 189.5h86v-568h-86q0 139 -53 189.5 t-195 50.5h-193v-598h308q75 0 134 10.5t103.5 29t78 50t56 66.5t40 86.5t28 102t20.5 120.5h86l-88 -553h-891q-72 0 -198 -14q-101 -11 -166 -11q-177 0 -322 53.5t-242.5 149t-150.5 228t-53 290.5zM444 727q0 -324 139 -504t359 -180q73 0 116.5 13t75 51.5t44 108 t12.5 183.5v607q0 115 -12.5 184.5t-45 108t-76 51t-116.5 12.5q-80 0 -153 -24t-136 -74.5t-108.5 -124t-72 -179.5t-26.5 -233z" />
<glyph unicode="&#x153;" horiz-adv-x="1792" d="M63 459q0 209 136.5 339t367.5 130q114 0 217 -38t174 -114q135 152 371 152q90 0 160.5 -25t114 -66t72 -97.5t39.5 -114t11 -121.5q0 -36 -10.5 -43.5t-48.5 -7.5h-596q0 -28 1 -50t7 -65.5t17 -76.5t34 -72.5t54.5 -65.5t81.5 -44t112 -18q78 0 152 43t108 132 q6 21 13.5 27.5t31.5 6.5q43 0 43 -30q0 -14 -11 -41t-39 -64t-68 -69.5t-106.5 -55t-145.5 -22.5q-253 0 -393 157q-13 -14 -23.5 -25t-48.5 -38t-78 -45t-106.5 -33.5t-139.5 -15.5q-231 0 -367.5 131t-136.5 340zM291 467q0 -38 0.5 -61t6 -71.5t15 -80.5t30 -73t49 -66 t74.5 -42.5t103 -17.5q61 0 125.5 28.5t104.5 98.5q23 41 34.5 98.5t13 93.5t1.5 93q0 58 -1.5 93.5t-13.5 90.5t-36 92q-78 117 -228 117q-45 0 -83 -10t-65 -25t-48 -40t-34.5 -47.5t-23 -56.5t-14.5 -57t-7 -58.5t-2.5 -52t-0.5 -46.5zM1071 512h467q-1 32 -2.5 52.5 t-7 60.5t-13.5 67.5t-24 62t-37 55.5t-53.5 35.5t-73.5 14.5q-51 0 -107 -24t-94 -82q-48 -76 -55 -242z" />
<glyph unicode="&#x178;" horiz-adv-x="1740" d="M33 1317v88q55 -4 332 -4q286 0 352 4v-88h-172l426 -631l393 584l14 24q-51 23 -155 23v88q47 -4 252 -4q174 0 231 4v-88h-39q-74 0 -114 -6.5t-50.5 -14t-21.5 -24.5l-482 -711v-473h220v-88q-66 4 -349 4q-289 0 -348 -4v88h217v473l-510 756h-196zM449 1628 q0 55 38.5 94t94.5 39q54 0 93.5 -38.5t39.5 -94.5q0 -54 -39.5 -93.5t-95.5 -39.5q-53 0 -92 38.5t-39 94.5zM1026 1628q0 55 38.5 94t94.5 39q54 0 93.5 -38.5t39.5 -94.5q0 -54 -39 -93.5t-96 -39.5q-53 0 -92 38.5t-39 94.5z" />
<glyph unicode="&#x2c6;" d="M213 1077l362 379l363 -379l-41 -45l-324 203l-323 -203z" />
<glyph unicode="&#x2dc;" d="M195 1182l106 116q50 56 137 56q57 0 142 -33q118 -43 172 -43q91 0 157 76l49 -45l-106 -117q-49 -55 -137 -55q-59 0 -142 32q-118 43 -172 43q-92 0 -157 -75z" />
<glyph unicode="&#x2000;" horiz-adv-x="930" />
<glyph unicode="&#x2001;" horiz-adv-x="1860" />
<glyph unicode="&#x2002;" horiz-adv-x="930" />
<glyph unicode="&#x2003;" horiz-adv-x="1860" />
<glyph unicode="&#x2004;" horiz-adv-x="620" />
<glyph unicode="&#x2005;" horiz-adv-x="465" />
<glyph unicode="&#x2006;" horiz-adv-x="310" />
<glyph unicode="&#x2007;" horiz-adv-x="310" />
<glyph unicode="&#x2008;" horiz-adv-x="232" />
<glyph unicode="&#x2009;" horiz-adv-x="372" />
<glyph unicode="&#x200a;" horiz-adv-x="103" />
<glyph unicode="&#x2010;" horiz-adv-x="768" d="M25 360v189h614v-189h-614z" />
<glyph unicode="&#x2011;" horiz-adv-x="768" d="M25 360v189h614v-189h-614z" />
<glyph unicode="&#x2012;" horiz-adv-x="768" d="M25 360v189h614v-189h-614z" />
<glyph unicode="&#x2013;" d="M0 528v68h1149v-68h-1149z" />
<glyph unicode="&#x2014;" horiz-adv-x="2304" d="M0 528v68h2302v-68h-2302z" />
<glyph unicode="&#x2018;" horiz-adv-x="641" d="M139 977q0 77 22 150t53.5 124.5t66 91t60.5 59t36 19.5t23.5 -13t13.5 -26q0 -6 -3 -9.5t-18 -16.5q-180 -144 -186 -379q47 47 112 47q68 0 108 -44t40 -103q0 -62 -39.5 -105t-105.5 -43q-84 0 -133.5 71.5t-49.5 176.5z" />
<glyph unicode="&#x2019;" horiz-adv-x="641" d="M172 1274q0 62 39.5 104.5t105.5 42.5q84 0 133.5 -71t49.5 -176q0 -77 -22 -150t-53.5 -124.5t-66 -91.5t-60.5 -59.5t-36 -19.5t-23.5 13t-13.5 26q0 8 21 27q180 144 186 379q-48 -48 -113 -48q-68 0 -107.5 44t-39.5 104z" />
<glyph unicode="&#x201a;" horiz-adv-x="641" d="M156 147q0 62 39.5 105t105.5 43q84 0 133 -71.5t49 -176.5q0 -77 -22 -150t-53.5 -124.5t-65.5 -91t-60 -59t-36 -19.5t-23.5 13t-13.5 26q0 8 20 26q181 145 187 379q-47 -47 -113 -47q-68 0 -107.5 43.5t-39.5 103.5z" />
<glyph unicode="&#x201c;" horiz-adv-x="1128" d="M139 977q0 77 22 150t53.5 124.5t66 91t60.5 59t36 19.5t23.5 -13t13.5 -26q0 -6 -3 -9.5t-18 -16.5q-180 -144 -186 -379q47 47 112 47q68 0 108 -44t40 -103q0 -62 -39.5 -105t-105.5 -43q-84 0 -133.5 71.5t-49.5 176.5zM627 977q0 77 22 150t53.5 124.5t65.5 91 t60 59t36 19.5t23.5 -13t13.5 -26q0 -8 -20 -26q-181 -145 -187 -379q47 47 113 47q68 0 107.5 -43.5t39.5 -103.5q0 -62 -39.5 -105t-105.5 -43q-84 0 -133 71.5t-49 176.5z" />
<glyph unicode="&#x201d;" horiz-adv-x="1128" d="M174 1274q0 62 39.5 104.5t105.5 42.5q84 0 133.5 -71t49.5 -176q0 -77 -22 -150t-53.5 -124.5t-66 -91.5t-60.5 -59.5t-36 -19.5t-23.5 13t-13.5 26q0 8 21 27q180 144 186 379q-48 -48 -112 -48q-68 0 -108 44t-40 104zM662 1274q0 62 39.5 104.5t105.5 42.5 q84 0 133 -71t49 -176q0 -77 -22 -150t-53.5 -124.5t-65.5 -91.5t-60 -59.5t-36 -19.5t-23.5 13t-13.5 26q0 9 20 27q181 145 187 379q-48 -48 -113 -48q-68 0 -107.5 44t-39.5 104z" />
<glyph unicode="&#x201e;" horiz-adv-x="1128" d="M174 147q0 62 39.5 105t105.5 43q84 0 133.5 -71.5t49.5 -176.5q0 -77 -22 -150t-53.5 -124.5t-66 -91t-60.5 -59t-36 -19.5t-23.5 13t-13.5 26q0 6 3 9.5t18 16.5q180 144 186 379q-47 -47 -112 -47q-68 0 -108 44t-40 103zM662 147q0 62 39.5 105t105.5 43 q84 0 133 -71.5t49 -176.5q0 -77 -22 -150t-53.5 -124.5t-65.5 -91t-60 -59t-36 -19.5t-23.5 13t-13.5 26q0 8 20 26q181 145 187 379q-47 -47 -113 -47q-68 0 -107.5 43.5t-39.5 103.5z" />
<glyph unicode="&#x2022;" horiz-adv-x="1792" d="M596 481q0 128 88.5 214.5t212.5 86.5t212.5 -86.5t88.5 -214.5t-88.5 -214.5t-212.5 -86.5t-212.5 86.5t-88.5 214.5z" />
<glyph unicode="&#x2026;" horiz-adv-x="1642" d="M172 147q0 62 43 105t104 43t104.5 -43t43.5 -105t-43.5 -104.5t-104.5 -42.5t-104 42.5t-43 104.5zM674 147q0 62 43 105t104 43t104.5 -43t43.5 -105t-43.5 -104.5t-104.5 -42.5t-104 42.5t-43 104.5zM1176 147q0 62 43 105t104 43t104 -43t43 -105t-43 -104.5 t-104 -42.5t-104 42.5t-43 104.5z" />
<glyph unicode="&#x202f;" horiz-adv-x="372" />
<glyph unicode="&#x2039;" horiz-adv-x="894" d="M256 483q0 11 8 19q210 188 309 450q7 15 23 15h18q11 0 18 -8t7 -21q-47 -241 -158 -455q112 -216 158 -454q0 -13 -7 -21t-18 -8h-18q-17 0 -23 16q-100 262 -309 449q-8 8 -8 18z" />
<glyph unicode="&#x203a;" horiz-adv-x="894" d="M256 29q46 238 158 454q-111 214 -158 455q0 13 7 21t18 8h18q15 0 23 -15q99 -262 309 -450q8 -8 8 -19q0 -10 -8 -18q-209 -187 -309 -449q-6 -16 -23 -16h-18q-11 0 -18 8t-7 21z" />
<glyph unicode="&#x205f;" horiz-adv-x="465" />
<glyph unicode="&#x20ac;" horiz-adv-x="1443" d="M125 561l10 37q6 16 25 16h102q-4 58 -4 88q0 31 4 89h-115q-12 0 -19 10t-3 22l10 37q7 17 25 17h112q41 216 168 354q90 98 217 148.5t267 50.5q134 0 241 -74l97 69q10 5 14 5h14q10 0 17.5 -7t7.5 -18v-291q0 -10 -7 -17t-18 -7h-45q-9 0 -15.5 6t-8.5 14 q-12 100 -85 166.5t-171 66.5q-99 0 -185 -43.5t-139 -123.5q-74 -110 -88 -299h608q11 0 19.5 -8t5.5 -17l-12 -45q-6 -16 -25 -16h-600v-89v-88h530q11 0 19.5 -7.5t5.5 -16.5l-12 -45q-7 -17 -25 -17h-514q14 -189 88 -299q53 -80 139.5 -124t184.5 -44t171 67.5 t85 166.5q3 20 24 20h45q11 0 18 -7t7 -17v-291q0 -10 -7.5 -17.5t-17.5 -7.5h-14q-4 0 -14 5l-97 69q-107 -74 -241 -74q-140 0 -267 50.5t-217 148.5q-127 138 -168 354h-125q-12 0 -19 10.5t-3 22.5z" />
<glyph unicode="&#x2122;" horiz-adv-x="2273" d="M51 1114l25 291h809l24 -291h-51q-3 38 -5.5 56.5t-8 49t-13.5 45.5t-22.5 35t-34 29t-49 16t-66.5 7h-98v-725h187v-54l-267 2l-268 -2v54h186v725h-100q-37 0 -66 -7t-48.5 -16.5t-34 -29t-22.5 -35.5t-13.5 -45t-7.5 -49t-5 -56h-51zM961 573v54h26q47 0 70 4 q24 3 28.5 7.5t4.5 25.5v700h-129v53h260q17 0 23 -1t13 -6.5t13 -18.5l295 -662l295 662q5 13 12 19t13 6.5t22 0.5h262v-53h-131v-737h131v-54q-33 2 -203 2t-203 -2v54h131v737h-2l-340 -764q-12 -27 -34 -27q-23 0 -35 27l-334 750h-2v-686q0 -20 5.5 -25t31.5 -8 q31 -4 65 -4h29v-54q-29 2 -160 2q-130 0 -157 -2z" />
<glyph unicode="&#x25fc;" horiz-adv-x="911" d="M0 0v911h911v-911h-911z" />
<glyph unicode="&#xfb03;" horiz-adv-x="1921" d="M61 821v88h152v207q0 71 34.5 128t88.5 91.5t127 57.5t144 32t145 9q154 0 241 -91q160 91 404 91q145 0 222 -69t77 -163q0 -57 -36 -91t-89 -34q-54 0 -89.5 34.5t-35.5 90.5q0 42 22.5 75.5t67.5 47.5q-61 41 -158 41q-32 0 -65.5 -3.5t-82.5 -19t-85.5 -40.5 t-63 -74.5t-26.5 -114.5v-205h295v9l354 10v-840h141v-88q-47 4 -248 4q-200 0 -247 -4v88h141v660q0 51 -11.5 62t-52.5 11h-362v-733h141v-88q-47 4 -248 4q-200 0 -247 -4v88h141v733h-426v-733h141v-88q-47 4 -248 4q-200 0 -247 -4v88h141v733h-152zM416 909h436v189 q-55 32 -55 104q0 96 92 123q-61 41 -156 41q-64 0 -119 -14t-100.5 -43t-71.5 -79t-26 -116v-205z" />
</font>
</defs>
</svg>
